<svg width="161" height="166" viewBox="0 0 161 166" fill="none" xmlns="http://www.w3.org/2000/svg">
<g filter="url(#filter0_f_303_724)">
<path d="M80.6904 53.3063C73.9196 62.4993 72.7455 75.0453 78.7183 85.3905C84.6912 95.7358 96.1433 100.992 107.49 99.7247C105.077 103 101.954 105.85 98.1904 108.023C83.8641 116.295 65.6831 111.625 57.5819 97.5936C49.4808 83.5621 54.5274 65.482 68.8537 57.2107C72.6174 55.0377 76.6472 53.7579 80.6904 53.3063Z" fill="#FFEE94"/>
</g>
<g filter="url(#filter1_i_303_724)">
<path d="M80.0594 57.1804C73.8787 65.5721 72.807 77.0244 78.2592 86.4679C83.7114 95.9114 94.1653 100.709 104.523 99.5526C102.321 102.543 99.4697 105.144 96.034 107.128C82.9564 114.678 66.3602 110.416 58.9652 97.6073C51.5702 84.7988 56.1769 68.2948 69.2544 60.7445C72.6901 58.7609 76.3686 57.5926 80.0594 57.1804Z" fill="url(#paint0_linear_303_724)"/>
</g>
<g filter="url(#filter2_di_303_724)">
<path d="M45.4216 64.9609C44.2999 65.459 43.8621 65.88 43.4609 66.9217C43.1413 65.9122 42.7483 65.4619 41.5001 64.9609C42.7842 64.5426 43.1326 64.0583 43.4609 63.0002C43.8642 63.9754 44.1133 64.5076 45.4216 64.9609Z" fill="url(#paint1_linear_303_724)"/>
</g>
<g filter="url(#filter3_di_303_724)">
<path d="M57.7065 57.9653C54.866 59.2267 53.7574 60.2927 52.7412 62.9307C51.9319 60.3742 50.9368 59.2338 47.7759 57.9653C51.0275 56.9059 51.91 55.6795 52.7412 53C53.7626 55.4696 54.3934 56.8173 57.7065 57.9653Z" fill="url(#paint2_linear_303_724)"/>
</g>
<g filter="url(#filter4_di_303_724)">
<path d="M103.356 85.2468C100.515 86.5082 99.4068 87.5742 98.3906 90.2122C97.5814 87.6557 96.5862 86.5153 93.4253 85.2468C96.6769 84.1874 97.5594 82.961 98.3906 80.2815C99.412 82.751 100.043 84.0988 103.356 85.2468Z" fill="url(#paint3_linear_303_724)"/>
</g>
<defs>
<filter id="filter0_f_303_724" x="0.716644" y="0.306396" width="159.773" height="164.807" filterUnits="userSpaceOnUse" color-interpolation-filters="sRGB">
<feFlood flood-opacity="0" result="BackgroundImageFix"/>
<feBlend mode="normal" in="SourceGraphic" in2="BackgroundImageFix" result="shape"/>
<feGaussianBlur stdDeviation="26.5" result="effect1_foregroundBlur_303_724"/>
</filter>
<filter id="filter1_i_303_724" x="55.4369" y="57.1804" width="49.0862" height="57.6814" filterUnits="userSpaceOnUse" color-interpolation-filters="sRGB">
<feFlood flood-opacity="0" result="BackgroundImageFix"/>
<feBlend mode="normal" in="SourceGraphic" in2="BackgroundImageFix" result="shape"/>
<feColorMatrix in="SourceAlpha" type="matrix" values="0 0 0 0 0 0 0 0 0 0 0 0 0 0 0 0 0 0 127 0" result="hardAlpha"/>
<feOffset dy="4"/>
<feGaussianBlur stdDeviation="4"/>
<feComposite in2="hardAlpha" operator="arithmetic" k2="-1" k3="1"/>
<feColorMatrix type="matrix" values="0 0 0 0 1 0 0 0 0 1 0 0 0 0 1 0 0 0 0.55 0"/>
<feBlend mode="normal" in2="shape" result="effect1_innerShadow_303_724"/>
</filter>
<filter id="filter2_di_303_724" x="32.7326" y="60.2328" width="21.4564" height="21.4563" filterUnits="userSpaceOnUse" color-interpolation-filters="sRGB">
<feFlood flood-opacity="0" result="BackgroundImageFix"/>
<feColorMatrix in="SourceAlpha" type="matrix" values="0 0 0 0 0 0 0 0 0 0 0 0 0 0 0 0 0 0 127 0" result="hardAlpha"/>
<feOffset dy="6"/>
<feGaussianBlur stdDeviation="4.38372"/>
<feColorMatrix type="matrix" values="0 0 0 0 0.278813 0 0 0 0 0.232917 0 0 0 0 0.5375 0 0 0 1 0"/>
<feBlend mode="normal" in2="BackgroundImageFix" result="effect1_dropShadow_303_724"/>
<feBlend mode="normal" in="SourceGraphic" in2="effect1_dropShadow_303_724" result="shape"/>
<feColorMatrix in="SourceAlpha" type="matrix" values="0 0 0 0 0 0 0 0 0 0 0 0 0 0 0 0 0 0 127 0" result="hardAlpha"/>
<feOffset dy="4"/>
<feGaussianBlur stdDeviation="2"/>
<feComposite in2="hardAlpha" operator="arithmetic" k2="-1" k3="1"/>
<feColorMatrix type="matrix" values="0 0 0 0 1 0 0 0 0 1 0 0 0 0 1 0 0 0 0.44 0"/>
<feBlend mode="normal" in2="shape" result="effect2_innerShadow_303_724"/>
</filter>
<filter id="filter3_di_303_724" x="39.0084" y="50.2326" width="27.4656" height="27.4656" filterUnits="userSpaceOnUse" color-interpolation-filters="sRGB">
<feFlood flood-opacity="0" result="BackgroundImageFix"/>
<feColorMatrix in="SourceAlpha" type="matrix" values="0 0 0 0 0 0 0 0 0 0 0 0 0 0 0 0 0 0 127 0" result="hardAlpha"/>
<feOffset dy="6"/>
<feGaussianBlur stdDeviation="4.38372"/>
<feColorMatrix type="matrix" values="0 0 0 0 0.278813 0 0 0 0 0.232917 0 0 0 0 0.5375 0 0 0 1 0"/>
<feBlend mode="normal" in2="BackgroundImageFix" result="effect1_dropShadow_303_724"/>
<feBlend mode="normal" in="SourceGraphic" in2="effect1_dropShadow_303_724" result="shape"/>
<feColorMatrix in="SourceAlpha" type="matrix" values="0 0 0 0 0 0 0 0 0 0 0 0 0 0 0 0 0 0 127 0" result="hardAlpha"/>
<feOffset dy="4"/>
<feGaussianBlur stdDeviation="2"/>
<feComposite in2="hardAlpha" operator="arithmetic" k2="-1" k3="1"/>
<feColorMatrix type="matrix" values="0 0 0 0 1 0 0 0 0 1 0 0 0 0 1 0 0 0 0.44 0"/>
<feBlend mode="normal" in2="shape" result="effect2_innerShadow_303_724"/>
</filter>
<filter id="filter4_di_303_724" x="84.6578" y="77.514" width="27.4656" height="27.4656" filterUnits="userSpaceOnUse" color-interpolation-filters="sRGB">
<feFlood flood-opacity="0" result="BackgroundImageFix"/>
<feColorMatrix in="SourceAlpha" type="matrix" values="0 0 0 0 0 0 0 0 0 0 0 0 0 0 0 0 0 0 127 0" result="hardAlpha"/>
<feOffset dy="6"/>
<feGaussianBlur stdDeviation="4.38372"/>
<feColorMatrix type="matrix" values="0 0 0 0 0.278813 0 0 0 0 0.232917 0 0 0 0 0.5375 0 0 0 1 0"/>
<feBlend mode="normal" in2="BackgroundImageFix" result="effect1_dropShadow_303_724"/>
<feBlend mode="normal" in="SourceGraphic" in2="effect1_dropShadow_303_724" result="shape"/>
<feColorMatrix in="SourceAlpha" type="matrix" values="0 0 0 0 0 0 0 0 0 0 0 0 0 0 0 0 0 0 127 0" result="hardAlpha"/>
<feOffset dy="4"/>
<feGaussianBlur stdDeviation="2"/>
<feComposite in2="hardAlpha" operator="arithmetic" k2="-1" k3="1"/>
<feColorMatrix type="matrix" values="0 0 0 0 1 0 0 0 0 1 0 0 0 0 1 0 0 0 0.44 0"/>
<feBlend mode="normal" in2="shape" result="effect2_innerShadow_303_724"/>
</filter>
<linearGradient id="paint0_linear_303_724" x1="81.4053" y1="52.7301" x2="71.5932" y2="112.142" gradientUnits="userSpaceOnUse">
<stop stop-color="#FFEE94"/>
<stop offset="1" stop-color="#FF9900"/>
</linearGradient>
<linearGradient id="paint1_linear_303_724" x1="42.8936" y1="67.1054" x2="44.7391" y2="63.6404" gradientUnits="userSpaceOnUse">
<stop stop-color="#FF9900"/>
<stop offset="1" stop-color="#FFEE94"/>
</linearGradient>
<linearGradient id="paint2_linear_303_724" x1="51.3048" y1="63.396" x2="55.9782" y2="54.6214" gradientUnits="userSpaceOnUse">
<stop stop-color="#FF9900"/>
<stop offset="1" stop-color="#FFEE94"/>
</linearGradient>
<linearGradient id="paint3_linear_303_724" x1="96.9542" y1="90.6774" x2="101.628" y2="81.9029" gradientUnits="userSpaceOnUse">
<stop stop-color="#FF9900"/>
<stop offset="1" stop-color="#FFEE94"/>
</linearGradient>
</defs>
</svg>
