<svg width="32" height="32" viewBox="0 0 32 32" fill="none" xmlns="http://www.w3.org/2000/svg">
<path d="M21.5662 6.13258C20.0352 4.36406 18.3126 2.77098 16.43 1.38258C16.304 1.29438 16.1538 1.24707 16 1.24707C15.8462 1.24707 15.696 1.29438 15.57 1.38258C13.6874 2.77098 11.9648 4.36406 10.4338 6.13258C7.0425 10.0326 5.25 14.1363 5.25 18.0001C5.25 20.8512 6.38259 23.5855 8.3986 25.6015C10.4146 27.6175 13.1489 28.7501 16 28.7501C18.8511 28.7501 21.5854 27.6175 23.6014 25.6015C25.6174 23.5855 26.75 20.8512 26.75 18.0001C26.75 14.1363 24.9575 10.0326 21.5662 6.13258ZM16 27.2501C13.5477 27.2471 11.1966 26.2716 9.46255 24.5375C7.72848 22.8035 6.75298 20.4524 6.75 18.0001C6.75 10.5476 14.125 4.38383 16 2.93633C17.875 4.38383 25.25 10.5476 25.25 18.0001C25.247 20.4524 24.2715 22.8035 22.5374 24.5375C20.8034 26.2716 18.4523 27.2471 16 27.2501ZM22.74 19.1251C22.4899 20.5226 21.8177 21.81 20.8138 22.8138C19.8099 23.8177 18.5225 24.49 17.125 24.7401C17.0836 24.7464 17.0419 24.7497 17 24.7501C16.8114 24.7508 16.6295 24.6805 16.4904 24.5531C16.3514 24.4258 16.2654 24.2507 16.2497 24.0628C16.2339 23.8749 16.2895 23.6879 16.4054 23.5392C16.5213 23.3904 16.6889 23.2908 16.875 23.2601C19.0475 22.8951 20.8913 21.0501 21.26 18.8751C21.2932 18.6788 21.4029 18.5038 21.5651 18.3884C21.6455 18.3313 21.7362 18.2906 21.8323 18.2686C21.9284 18.2465 22.0278 18.2437 22.125 18.2601C22.2222 18.2765 22.3152 18.3119 22.3987 18.3642C22.4822 18.4166 22.5545 18.4849 22.6116 18.5652C22.6688 18.6455 22.7095 18.7363 22.7315 18.8324C22.7535 18.9284 22.7564 19.0279 22.74 19.1251Z" fill="#3B3B55"/>
</svg>
