<svg width="24" height="24" viewBox="0 0 24 24" fill="none" xmlns="http://www.w3.org/2000/svg">
<path d="M16.1747 4.59943C15.0264 3.27305 13.7344 2.07823 12.3225 1.03693C12.228 0.970783 12.1154 0.935303 12 0.935303C11.8846 0.935303 11.772 0.970783 11.6775 1.03693C10.2656 2.07823 8.97359 3.27305 7.82531 4.59943C5.28188 7.52443 3.9375 10.6022 3.9375 13.5001C3.9375 15.6384 4.78694 17.6891 6.29895 19.2011C7.81096 20.7131 9.86169 21.5626 12 21.5626C14.1383 21.5626 16.189 20.7131 17.701 19.2011C19.2131 17.6891 20.0625 15.6384 20.0625 13.5001C20.0625 10.6022 18.7181 7.52443 16.1747 4.59943ZM12 20.4376C10.1607 20.4353 8.39746 19.7037 7.09691 18.4031C5.79636 17.1026 5.06473 15.3393 5.0625 13.5001C5.0625 7.91068 10.5938 3.28787 12 2.20225C13.4062 3.28787 18.9375 7.91068 18.9375 13.5001C18.9353 15.3393 18.2036 17.1026 16.9031 18.4031C15.6025 19.7037 13.8393 20.4353 12 20.4376ZM17.055 14.3438C16.8674 15.3919 16.3632 16.3575 15.6103 17.1104C14.8574 17.8633 13.8919 18.3675 12.8438 18.5551C12.8127 18.5598 12.7814 18.5623 12.75 18.5626C12.6086 18.5631 12.4721 18.5104 12.3678 18.4149C12.2635 18.3193 12.1991 18.188 12.1872 18.0471C12.1754 17.9062 12.2171 17.7659 12.304 17.6544C12.391 17.5428 12.5167 17.4681 12.6562 17.4451C14.2856 17.1713 15.6684 15.7876 15.945 14.1563C15.9699 14.0091 16.0522 13.8778 16.1738 13.7913C16.2341 13.7485 16.3022 13.7179 16.3742 13.7014C16.4463 13.6849 16.5209 13.6827 16.5938 13.6951C16.6666 13.7074 16.7364 13.7339 16.799 13.7732C16.8616 13.8124 16.9159 13.8637 16.9587 13.9239C17.0016 13.9841 17.0321 14.0522 17.0486 14.1243C17.0651 14.1963 17.0673 14.2709 17.055 14.3438Z" fill="#3B3B54"/>
</svg>
