<svg width="186" height="32" viewBox="0 0 186 32" fill="none" xmlns="http://www.w3.org/2000/svg">
<g opacity="0.8">
<path d="M35.5002 28C34.2006 28 33.4 27.4 32.0918 26.6934C30.7836 25.9867 27 23.1416 27 19.6C27 17.1975 26.3806 15.2543 25.3259 13.7057C24.2791 12.169 22.8609 11.1043 21.3855 10.3527C20.6746 9.99064 19.9347 9.69452 19.198 9.4498C18.7685 9.30724 18.5193 8.84608 18.7056 8.4338C19.8867 5.81916 22.517 4 25.5724 4C29.7316 4 33.1035 7.37168 33.1035 11.531C33.1035 12.4209 32.9492 13.2748 32.6658 14.0672C33.8662 13.2582 35.3126 12.7861 36.869 12.7861C41.0282 12.7861 44.3998 16.1578 44.3998 20.3172C44.3998 25.3244 39.9998 28 35.5002 28Z" fill="#8FB2F5"/>
<path d="M8 19.6896C8 23.6593 10.6172 26.967 14.0844 27.6978C14.6195 27.8933 15.1973 28 15.8 28H27.501C27.8934 28 28.0642 27.4752 27.7646 27.2216C25.7197 25.4914 24.2 23.0529 24.2 19.6C24.2 17.7027 23.7195 16.3208 23.0117 15.282C22.2959 14.2312 21.2891 13.4458 20.1146 12.8474C18.9293 12.2437 17.6424 11.8591 16.4135 11.5865C16.124 11.55 15.8295 11.531 15.531 11.531C11.3717 11.531 8 15.1838 8 19.6896Z" fill="#8FB2F5"/>
<path d="M103.641 22.6241L99.5997 8.80005H102.029L104.784 18.784L107.529 8.81925L109.958 8.80005L112.713 18.784L115.459 8.80005H117.888L113.856 22.6241H111.571L108.739 12.7936L105.926 22.6241H103.641Z" fill="#FAFAFA"/>
<path d="M123.024 22.912C121.974 22.912 121.053 22.6849 120.259 22.2305C119.466 21.7761 118.845 21.1457 118.397 20.3393C117.955 19.5329 117.734 18.6049 117.734 17.5553C117.734 16.4225 117.952 15.44 118.387 14.608C118.822 13.7696 119.427 13.12 120.202 12.6592C120.976 12.1984 121.872 11.968 122.89 11.968C123.965 11.968 124.877 12.2208 125.626 12.7264C126.381 13.2256 126.941 13.9328 127.306 14.8481C127.67 15.7633 127.808 16.8416 127.718 18.0832H125.424V17.2384C125.418 16.112 125.219 15.2896 124.829 14.7712C124.438 14.2528 123.824 13.9936 122.986 13.9936C122.038 13.9936 121.334 14.288 120.874 14.8768C120.413 15.4592 120.182 16.3137 120.182 17.4401C120.182 18.4896 120.413 19.3024 120.874 19.8784C121.334 20.4544 122.006 20.7424 122.89 20.7424C123.459 20.7424 123.949 20.6176 124.358 20.368C124.774 20.112 125.094 19.7441 125.318 19.2641L127.603 19.9552C127.206 20.8896 126.592 21.616 125.76 22.1344C124.934 22.6528 124.022 22.912 123.024 22.912ZM119.453 18.0832V16.3361H126.586V18.0832H119.453Z" fill="#FAFAFA"/>
<path d="M132.572 22.912C131.823 22.912 131.19 22.7713 130.671 22.4897C130.153 22.2017 129.759 21.8209 129.491 21.3473C129.228 20.8737 129.097 20.352 129.097 19.7824C129.097 19.2832 129.18 18.8352 129.347 18.4384C129.513 18.0352 129.769 17.6896 130.115 17.4016C130.46 17.1072 130.908 16.8673 131.459 16.6817C131.875 16.5472 132.361 16.4256 132.918 16.3168C133.481 16.208 134.089 16.1089 134.742 16.0192C135.401 15.9233 136.089 15.8208 136.806 15.712L135.98 16.1824C135.987 15.4656 135.827 14.9376 135.5 14.5984C135.174 14.2592 134.623 14.0897 133.849 14.0897C133.382 14.0897 132.931 14.1984 132.495 14.416C132.06 14.6336 131.756 15.0081 131.583 15.5393L129.471 14.8768C129.727 14 130.214 13.2961 130.931 12.7648C131.654 12.2337 132.627 11.968 133.849 11.968C134.771 11.968 135.58 12.1184 136.278 12.4192C136.982 12.72 137.503 13.2129 137.843 13.8977C138.028 14.2625 138.14 14.6368 138.179 15.0208C138.217 15.3984 138.236 15.8112 138.236 16.2592V22.6241H136.211V20.3777L136.547 20.7424C136.079 21.4912 135.532 22.0417 134.905 22.3937C134.284 22.7393 133.507 22.912 132.572 22.912ZM133.033 21.0689C133.558 21.0689 134.006 20.9761 134.377 20.7905C134.748 20.6048 135.043 20.3776 135.26 20.1088C135.484 19.84 135.635 19.5872 135.711 19.3504C135.833 19.056 135.9 18.72 135.913 18.3424C135.932 17.9584 135.942 17.6481 135.942 17.4113L136.652 17.6225C135.955 17.7313 135.356 17.8273 134.857 17.9104C134.358 17.9937 133.929 18.0736 133.571 18.1504C133.212 18.2208 132.895 18.3008 132.62 18.3904C132.351 18.4865 132.124 18.5984 131.939 18.7264C131.753 18.8544 131.609 19.0016 131.507 19.168C131.411 19.3344 131.363 19.5296 131.363 19.7536C131.363 20.0096 131.427 20.2369 131.555 20.4353C131.683 20.6273 131.868 20.7808 132.111 20.896C132.361 21.0112 132.668 21.0689 133.033 21.0689Z" fill="#FAFAFA"/>
<path d="M146.812 22.6241C146.127 22.7521 145.455 22.8064 144.796 22.7872C144.143 22.7744 143.558 22.656 143.039 22.432C142.521 22.2016 142.127 21.8401 141.859 21.3473C141.622 20.8993 141.497 20.4416 141.484 19.9744C141.471 19.5072 141.465 18.9792 141.465 18.3904V9.37605H143.769V18.2561C143.769 18.6721 143.772 19.0368 143.779 19.3504C143.791 19.664 143.859 19.9201 143.98 20.1185C144.211 20.5025 144.579 20.7168 145.084 20.7617C145.59 20.8064 146.166 20.7809 146.812 20.6849V22.6241ZM139.583 14.0704V12.2561H146.812V14.0704H139.583Z" fill="#FAFAFA"/>
<path d="M156.213 22.6241V17.632C156.213 17.3056 156.19 16.9441 156.146 16.5473C156.101 16.1505 155.995 15.7696 155.829 15.4048C155.669 15.0336 155.426 14.7296 155.099 14.4928C154.779 14.256 154.344 14.1376 153.794 14.1376C153.499 14.1376 153.208 14.1856 152.92 14.2817C152.632 14.3776 152.37 14.5441 152.133 14.7809C151.902 15.0113 151.717 15.3312 151.576 15.7408C151.435 16.144 151.365 16.6624 151.365 17.296L149.992 16.7104C149.992 15.8272 150.162 15.0272 150.501 14.3104C150.846 13.5936 151.352 13.024 152.018 12.6016C152.683 12.1728 153.502 11.9584 154.475 11.9584C155.243 11.9584 155.877 12.0864 156.376 12.3424C156.875 12.5984 157.272 12.9248 157.566 13.3216C157.861 13.7184 158.078 14.1409 158.219 14.5889C158.36 15.0369 158.45 15.4625 158.488 15.8656C158.533 16.2624 158.555 16.5856 158.555 16.8352V22.6241H156.213ZM149.022 22.6241V8.80005H151.086V16.0768H151.365V22.6241H149.022Z" fill="#FAFAFA"/>
<path d="M165.774 22.912C164.724 22.912 163.803 22.6849 163.009 22.2305C162.216 21.7761 161.595 21.1457 161.147 20.3393C160.705 19.5329 160.484 18.6049 160.484 17.5553C160.484 16.4225 160.702 15.44 161.137 14.608C161.572 13.7696 162.177 13.12 162.952 12.6592C163.726 12.1984 164.622 11.968 165.64 11.968C166.715 11.968 167.627 12.2208 168.376 12.7264C169.131 13.2256 169.691 13.9328 170.056 14.8481C170.42 15.7633 170.558 16.8416 170.468 18.0832H168.174V17.2384C168.168 16.112 167.969 15.2896 167.579 14.7712C167.188 14.2528 166.574 13.9936 165.736 13.9936C164.788 13.9936 164.084 14.288 163.624 14.8768C163.163 15.4592 162.932 16.3137 162.932 17.4401C162.932 18.4896 163.163 19.3024 163.624 19.8784C164.084 20.4544 164.756 20.7424 165.64 20.7424C166.209 20.7424 166.699 20.6176 167.108 20.368C167.524 20.112 167.844 19.7441 168.068 19.2641L170.353 19.9552C169.956 20.8896 169.342 21.616 168.51 22.1344C167.684 22.6528 166.772 22.912 165.774 22.912ZM162.203 18.0832V16.3361H169.336V18.0832H162.203Z" fill="#FAFAFA"/>
<path d="M172.61 22.6241V12.2561H174.655V14.7809L174.406 14.4544C174.534 14.1088 174.703 13.7952 174.914 13.5136C175.132 13.2256 175.391 12.9888 175.692 12.8032C175.948 12.6304 176.23 12.496 176.537 12.4C176.85 12.2976 177.17 12.2368 177.497 12.2176C177.823 12.192 178.14 12.2049 178.447 12.2561V14.416C178.14 14.3264 177.785 14.2976 177.382 14.3296C176.985 14.3616 176.626 14.4736 176.306 14.6656C175.986 14.8384 175.724 15.0592 175.519 15.328C175.321 15.5968 175.174 15.904 175.078 16.2496C174.982 16.5888 174.934 16.9569 174.934 17.3536V22.6241H172.61Z" fill="#FAFAFA"/>
<path d="M58.4732 22.624V10.9696H53.9996V8.80005H65.2604V10.9696H60.7868V22.624H58.4732Z" fill="#FAFAFA"/>
<path d="M66.8086 27.232L68.8054 21.7504L68.8438 23.3632L64.3222 12.256H66.7318L69.9382 20.4736H69.3238L72.4438 12.256H74.7574L68.9782 27.232H66.8086Z" fill="#FAFAFA"/>
<path d="M81.1715 22.912C80.1603 22.912 79.3123 22.672 78.6275 22.192C77.9427 21.712 77.4275 21.0592 77.0819 20.2336C76.7363 19.4016 76.5635 18.4704 76.5635 17.44C76.5635 16.3968 76.7363 15.4624 77.0819 14.6368C77.4275 13.8112 77.9331 13.1616 78.5987 12.688C79.2707 12.208 80.0995 11.968 81.0851 11.968C82.0643 11.968 82.9123 12.208 83.6291 12.688C84.3523 13.1616 84.9123 13.8112 85.3091 14.6368C85.7059 15.456 85.9043 16.3904 85.9043 17.44C85.9043 18.4768 85.7091 19.408 85.3187 20.2336C84.9283 21.0592 84.3779 21.712 83.6675 22.192C82.9571 22.672 82.1251 22.912 81.1715 22.912ZM76.1699 27.232V12.256H78.2147V19.5328H78.5027V27.232H76.1699ZM80.8163 20.8384C81.4179 20.8384 81.9139 20.688 82.3043 20.3872C82.6947 20.0864 82.9827 19.68 83.1683 19.168C83.3603 18.6496 83.4563 18.0736 83.4563 17.44C83.4563 16.8128 83.3603 16.2432 83.1683 15.7312C82.9763 15.2128 82.6787 14.8032 82.2755 14.5024C81.8723 14.1952 81.3603 14.0416 80.7395 14.0416C80.1507 14.0416 79.6707 14.1856 79.2995 14.4736C78.9283 14.7552 78.6531 15.152 78.4739 15.664C78.3011 16.1696 78.2147 16.7616 78.2147 17.44C78.2147 18.112 78.3011 18.704 78.4739 19.216C78.6531 19.728 78.9315 20.128 79.3091 20.416C79.6931 20.6976 80.1955 20.8384 80.8163 20.8384Z" fill="#FAFAFA"/>
<path d="M92.734 22.912C91.6844 22.912 90.7628 22.6848 89.9692 22.2304C89.1756 21.776 88.5548 21.1456 88.1068 20.3392C87.6652 19.5328 87.4444 18.6048 87.4444 17.5552C87.4444 16.4224 87.662 15.44 88.0972 14.608C88.5324 13.7696 89.1372 13.12 89.9116 12.6592C90.686 12.1984 91.582 11.968 92.5996 11.968C93.6748 11.968 94.5868 12.2208 95.3356 12.7264C96.0908 13.2256 96.6508 13.9328 97.0156 14.848C97.3804 15.7632 97.518 16.8416 97.4284 18.0832H95.134V17.2384C95.1276 16.112 94.9292 15.2896 94.5388 14.7712C94.1484 14.2528 93.534 13.9936 92.6956 13.9936C91.7484 13.9936 91.0444 14.288 90.5836 14.8768C90.1228 15.4592 89.8924 16.3136 89.8924 17.44C89.8924 18.4896 90.1228 19.3024 90.5836 19.8784C91.0444 20.4544 91.7164 20.7424 92.5996 20.7424C93.1692 20.7424 93.6588 20.6176 94.0684 20.368C94.4844 20.112 94.8044 19.744 95.0284 19.264L97.3132 19.9552C96.9164 20.8896 96.302 21.616 95.47 22.1344C94.6444 22.6528 93.7324 22.912 92.734 22.912ZM89.1628 18.0832V16.336H96.2956V18.0832H89.1628Z" fill="#FAFAFA"/>
</g>
</svg>
