<svg width="24" height="24" viewBox="0 0 24 24" fill="none" xmlns="http://www.w3.org/2000/svg">
<path d="M14.7188 18.3122L11.7188 22.8122C11.636 22.9366 11.5072 23.0229 11.3607 23.0523C11.2143 23.0816 11.0621 23.0516 10.9378 22.9688C10.8135 22.886 10.7272 22.7572 10.6978 22.6108C10.6684 22.4643 10.6985 22.3122 10.7812 22.1879L13.7812 17.6879C13.864 17.5635 13.9928 17.4772 14.1393 17.4478C14.2857 17.4185 14.4379 17.4485 14.5622 17.5313C14.6865 17.6141 14.7728 17.7429 14.8022 17.8893C14.8316 18.0358 14.8015 18.1879 14.7188 18.3122ZM21.5625 8.62505C21.5603 10.4643 20.8286 12.2276 19.5281 13.5281C18.2275 14.8287 16.4643 15.5603 14.625 15.5625H12.3009L9.46875 19.8122C9.42775 19.8738 9.37503 19.9267 9.3136 19.9679C9.25217 20.009 9.18322 20.0377 9.11071 20.0523C9.03819 20.0668 8.96352 20.0669 8.89096 20.0526C8.8184 20.0383 8.74937 20.0098 8.68781 19.9688C8.62625 19.9278 8.57338 19.8751 8.53219 19.8136C8.49101 19.7522 8.46233 19.6833 8.44779 19.6108C8.43326 19.5382 8.43314 19.4636 8.44746 19.391C8.46178 19.3184 8.49025 19.2494 8.53125 19.1879L10.9491 15.5625H7.125C6.47092 15.5592 5.82477 15.4191 5.2281 15.1511C4.63144 14.8831 4.09747 14.4931 3.66053 14.0064C3.22359 13.5197 2.89336 12.9469 2.69106 12.3248C2.48877 11.7028 2.41889 11.0453 2.48593 10.3947C2.55296 9.74405 2.75543 9.11463 3.0803 8.54693C3.40517 7.97922 3.84526 7.48578 4.37227 7.09836C4.89927 6.71093 5.50153 6.43808 6.1403 6.29737C6.77908 6.15665 7.44023 6.15117 8.08125 6.2813C8.63389 4.7425 9.71172 3.44803 11.125 2.6258C12.5382 1.80357 14.1962 1.50631 15.8071 1.78636C17.4179 2.06642 18.8783 2.90582 19.9311 4.15678C20.9839 5.40773 21.5616 6.99003 21.5625 8.62505ZM20.4375 8.62505C20.4326 7.11491 19.8407 5.66586 18.7869 4.58414C17.7332 3.50243 16.3001 2.87283 14.7906 2.82839C13.2811 2.78396 11.8135 3.32818 10.6979 4.34604C9.58234 5.3639 8.90624 6.77563 8.8125 8.28286C8.8038 8.43204 8.73619 8.57166 8.62455 8.67099C8.5129 8.77033 8.36637 8.82125 8.21719 8.81255C8.068 8.80384 7.92839 8.73623 7.82905 8.62459C7.72971 8.51295 7.6788 8.36642 7.6875 8.21723C7.70409 7.93423 7.73758 7.65248 7.78781 7.37348C7.30096 7.28226 6.80043 7.29357 6.31819 7.40669C5.83596 7.5198 5.38261 7.73224 4.9871 8.03043C4.59158 8.32862 4.2626 8.70601 4.02115 9.1385C3.7797 9.571 3.6311 10.0491 3.58483 10.5422C3.53855 11.0354 3.59563 11.5328 3.75241 12.0027C3.90919 12.4725 4.16223 12.9045 4.49537 13.2711C4.82851 13.6376 5.23443 13.9307 5.68721 14.1315C6.13999 14.3324 6.62967 14.4366 7.125 14.4375H14.625C16.166 14.4358 17.6435 13.8229 18.7331 12.7332C19.8228 11.6435 20.4358 10.1661 20.4375 8.62505Z" fill="#3B3B54"/>
</svg>
