<svg width="120" height="120" viewBox="0 0 120 120" fill="none" xmlns="http://www.w3.org/2000/svg">
<g filter="url(#filter0_i_303_722)">
<path d="M46.8259 41.0872C46.8629 40.8674 46.8822 40.6412 46.8822 40.4103C46.8822 38.2507 45.1922 36.5 43.1074 36.5C41.5576 36.5 40.2259 37.4676 39.6446 38.8514C39.1736 38.4302 38.5625 38.1759 37.8946 38.1759C36.4055 38.1759 35.1983 39.4403 35.1983 41C35.1983 41.0869 35.2021 41.1728 35.2094 41.2576C34.4932 41.6211 34 42.3836 34 43.2655C34 44.4996 34.9657 45.5 36.157 45.5H46.343C47.5343 45.5 48.5 44.4996 48.5 43.2655C48.5 42.2034 47.7847 41.3144 46.8259 41.0872Z" fill="url(#paint0_linear_303_722)"/>
</g>
<g filter="url(#filter1_i_303_722)">
<path d="M81.8799 65.3781C82.0485 64.4253 82.1364 63.4452 82.1364 62.4448C82.1364 53.0865 74.4438 45.5 64.9545 45.5C57.9001 45.5 51.8386 49.6928 49.1925 55.6894C47.0488 53.8641 44.2671 52.7621 41.2273 52.7621C34.4492 52.7621 28.9545 58.2412 28.9545 65C28.9545 65.3764 28.9716 65.7488 29.0049 66.1165C25.7448 67.6913 23.5 70.9957 23.5 74.8172C23.5 80.1649 27.8957 84.5 33.3182 84.5H79.6818C85.1043 84.5 89.5 80.1649 89.5 74.8172C89.5 70.2148 86.2441 66.3624 81.8799 65.3781Z" fill="url(#paint1_linear_303_722)"/>
</g>
<g filter="url(#filter2_i_303_722)">
<path d="M92.0909 40.5138C92.0909 41.1935 92.0323 41.8595 91.9199 42.5069C94.8294 43.1757 97 45.7934 97 48.9207C97 52.5543 94.0695 55.5 90.4545 55.5H80.6317C77.9424 49.6047 71.9345 45.5 64.9545 45.5C60.3664 45.5 56.1983 47.2736 53.1166 50.1635C53.0401 49.761 53 49.3456 53 48.9207C53 46.324 54.4965 44.0787 56.67 43.0086C56.6477 42.7588 56.6364 42.5057 56.6364 42.25C56.6364 37.6575 60.2995 33.9345 64.8182 33.9345C66.8447 33.9345 68.6992 34.6833 70.1283 35.9236C71.8924 31.8489 75.9334 29 80.6364 29C86.9625 29 92.0909 34.1549 92.0909 40.5138Z" fill="url(#paint2_linear_303_722)"/>
</g>
<g filter="url(#filter3_i_303_722)">
<path d="M41.0913 88.7354C38.5295 92.0959 34.943 98.8169 41.0913 98.8169C47.2397 98.8169 43.6531 92.0959 41.0913 88.7354Z" fill="#507CB1"/>
</g>
<g filter="url(#filter4_i_303_722)">
<path d="M55.4934 93.6733C52.9316 97.0339 49.3451 103.755 55.4934 103.755C61.6418 103.755 58.0552 97.0339 55.4934 93.6733Z" fill="#507CB1"/>
</g>
<g filter="url(#filter5_i_303_722)">
<path d="M68.867 88.7354C66.3052 92.0959 62.7187 98.8169 68.867 98.8169C75.0153 98.8169 71.4288 92.0959 68.867 88.7354Z" fill="#507CB1"/>
</g>
<defs>
<filter id="filter0_i_303_722" x="34" y="36.5" width="14.5" height="19" filterUnits="userSpaceOnUse" color-interpolation-filters="sRGB">
<feFlood flood-opacity="0" result="BackgroundImageFix"/>
<feBlend mode="normal" in="SourceGraphic" in2="BackgroundImageFix" result="shape"/>
<feColorMatrix in="SourceAlpha" type="matrix" values="0 0 0 0 0 0 0 0 0 0 0 0 0 0 0 0 0 0 127 0" result="hardAlpha"/>
<feOffset dy="11"/>
<feGaussianBlur stdDeviation="5"/>
<feComposite in2="hardAlpha" operator="arithmetic" k2="-1" k3="1"/>
<feColorMatrix type="matrix" values="0 0 0 0 1 0 0 0 0 1 0 0 0 0 1 0 0 0 1 0"/>
<feBlend mode="normal" in2="shape" result="effect1_innerShadow_303_722"/>
</filter>
<filter id="filter1_i_303_722" x="23.5" y="45.5" width="66" height="49" filterUnits="userSpaceOnUse" color-interpolation-filters="sRGB">
<feFlood flood-opacity="0" result="BackgroundImageFix"/>
<feBlend mode="normal" in="SourceGraphic" in2="BackgroundImageFix" result="shape"/>
<feColorMatrix in="SourceAlpha" type="matrix" values="0 0 0 0 0 0 0 0 0 0 0 0 0 0 0 0 0 0 127 0" result="hardAlpha"/>
<feOffset dy="11"/>
<feGaussianBlur stdDeviation="5"/>
<feComposite in2="hardAlpha" operator="arithmetic" k2="-1" k3="1"/>
<feColorMatrix type="matrix" values="0 0 0 0 1 0 0 0 0 1 0 0 0 0 1 0 0 0 1 0"/>
<feBlend mode="normal" in2="shape" result="effect1_innerShadow_303_722"/>
</filter>
<filter id="filter2_i_303_722" x="53" y="29" width="44" height="36.5" filterUnits="userSpaceOnUse" color-interpolation-filters="sRGB">
<feFlood flood-opacity="0" result="BackgroundImageFix"/>
<feBlend mode="normal" in="SourceGraphic" in2="BackgroundImageFix" result="shape"/>
<feColorMatrix in="SourceAlpha" type="matrix" values="0 0 0 0 0 0 0 0 0 0 0 0 0 0 0 0 0 0 127 0" result="hardAlpha"/>
<feOffset dy="11"/>
<feGaussianBlur stdDeviation="5"/>
<feComposite in2="hardAlpha" operator="arithmetic" k2="-1" k3="1"/>
<feColorMatrix type="matrix" values="0 0 0 0 1 0 0 0 0 1 0 0 0 0 1 0 0 0 1 0"/>
<feBlend mode="normal" in2="shape" result="effect1_innerShadow_303_722"/>
</filter>
<filter id="filter3_i_303_722" x="37.6965" y="88.7354" width="6.78961" height="13.0815" filterUnits="userSpaceOnUse" color-interpolation-filters="sRGB">
<feFlood flood-opacity="0" result="BackgroundImageFix"/>
<feBlend mode="normal" in="SourceGraphic" in2="BackgroundImageFix" result="shape"/>
<feColorMatrix in="SourceAlpha" type="matrix" values="0 0 0 0 0 0 0 0 0 0 0 0 0 0 0 0 0 0 127 0" result="hardAlpha"/>
<feOffset dy="9"/>
<feGaussianBlur stdDeviation="1.5"/>
<feComposite in2="hardAlpha" operator="arithmetic" k2="-1" k3="1"/>
<feColorMatrix type="matrix" values="0 0 0 0 1 0 0 0 0 1 0 0 0 0 1 0 0 0 0.21 0"/>
<feBlend mode="normal" in2="shape" result="effect1_innerShadow_303_722"/>
</filter>
<filter id="filter4_i_303_722" x="52.0986" y="93.6733" width="6.78961" height="13.0815" filterUnits="userSpaceOnUse" color-interpolation-filters="sRGB">
<feFlood flood-opacity="0" result="BackgroundImageFix"/>
<feBlend mode="normal" in="SourceGraphic" in2="BackgroundImageFix" result="shape"/>
<feColorMatrix in="SourceAlpha" type="matrix" values="0 0 0 0 0 0 0 0 0 0 0 0 0 0 0 0 0 0 127 0" result="hardAlpha"/>
<feOffset dy="9"/>
<feGaussianBlur stdDeviation="1.5"/>
<feComposite in2="hardAlpha" operator="arithmetic" k2="-1" k3="1"/>
<feColorMatrix type="matrix" values="0 0 0 0 1 0 0 0 0 1 0 0 0 0 1 0 0 0 0.21 0"/>
<feBlend mode="normal" in2="shape" result="effect1_innerShadow_303_722"/>
</filter>
<filter id="filter5_i_303_722" x="65.4722" y="88.7354" width="6.78961" height="13.0815" filterUnits="userSpaceOnUse" color-interpolation-filters="sRGB">
<feFlood flood-opacity="0" result="BackgroundImageFix"/>
<feBlend mode="normal" in="SourceGraphic" in2="BackgroundImageFix" result="shape"/>
<feColorMatrix in="SourceAlpha" type="matrix" values="0 0 0 0 0 0 0 0 0 0 0 0 0 0 0 0 0 0 127 0" result="hardAlpha"/>
<feOffset dy="9"/>
<feGaussianBlur stdDeviation="1.5"/>
<feComposite in2="hardAlpha" operator="arithmetic" k2="-1" k3="1"/>
<feColorMatrix type="matrix" values="0 0 0 0 1 0 0 0 0 1 0 0 0 0 1 0 0 0 0.21 0"/>
<feBlend mode="normal" in2="shape" result="effect1_innerShadow_303_722"/>
</filter>
<linearGradient id="paint0_linear_303_722" x1="34.9223" y1="44.6964" x2="50.0118" y2="33.9041" gradientUnits="userSpaceOnUse">
<stop stop-color="white" stop-opacity="0.65"/>
<stop offset="1" stop-color="white" stop-opacity="0.58"/>
</linearGradient>
<linearGradient id="paint1_linear_303_722" x1="27.6979" y1="81.0179" x2="94.0604" y2="31.1619" gradientUnits="userSpaceOnUse">
<stop stop-color="white" stop-opacity="0.65"/>
<stop offset="1" stop-color="white" stop-opacity="0.58"/>
</linearGradient>
<linearGradient id="paint2_linear_303_722" x1="94.2014" y1="53.1339" x2="49.3549" y2="20.0779" gradientUnits="userSpaceOnUse">
<stop stop-color="white" stop-opacity="0.65"/>
<stop offset="1" stop-color="white" stop-opacity="0.58"/>
</linearGradient>
</defs>
</svg>
