<svg width="161" height="166" viewBox="0 0 161 166" fill="none" xmlns="http://www.w3.org/2000/svg">
<g opacity="0.4" filter="url(#filter0_f_546_359)">
<path d="M80.6904 53.3063C73.9196 62.4993 72.7455 75.0453 78.7183 85.3905C84.6912 95.7358 96.1433 100.992 107.49 99.7247C105.077 103 101.954 105.85 98.1904 108.023C83.8641 116.295 65.6831 111.625 57.5819 97.5936C49.4808 83.5621 54.5274 65.482 68.8537 57.2107C72.6174 55.0377 76.6472 53.7579 80.6904 53.3063Z" fill="#FFEE94"/>
</g>
<g filter="url(#filter1_i_546_359)">
<path d="M64.3259 68.0872C64.3629 67.8674 64.3822 67.6412 64.3822 67.4103C64.3822 65.2507 62.6922 63.5 60.6074 63.5C59.0576 63.5 57.7259 64.4676 57.1446 65.8514C56.6736 65.4302 56.0625 65.1759 55.3946 65.1759C53.9055 65.1759 52.6983 66.4403 52.6983 68C52.6983 68.0869 52.7021 68.1728 52.7094 68.2576C51.9932 68.6211 51.5 69.3836 51.5 70.2655C51.5 71.4996 52.4657 72.5 53.657 72.5H63.843C65.0343 72.5 66 71.4996 66 70.2655C66 69.2034 65.2847 68.3144 64.3259 68.0872Z" fill="url(#paint0_linear_546_359)"/>
</g>
<g filter="url(#filter2_i_546_359)">
<path d="M99.3799 92.3781C99.5485 91.4253 99.6364 90.4452 99.6364 89.4448C99.6364 80.0865 91.9438 72.5 82.4545 72.5C75.4001 72.5 69.3386 76.6928 66.6925 82.6894C64.5488 80.8641 61.7671 79.7621 58.7273 79.7621C51.9492 79.7621 46.4545 85.2412 46.4545 92C46.4545 92.3764 46.4716 92.7488 46.5049 93.1165C43.2448 94.6913 41 97.9957 41 101.817C41 107.165 45.3957 111.5 50.8182 111.5H97.1818C102.604 111.5 107 107.165 107 101.817C107 97.2148 103.744 93.3624 99.3799 92.3781Z" fill="url(#paint1_linear_546_359)"/>
</g>
<g filter="url(#filter3_i_546_359)">
<path fill-rule="evenodd" clip-rule="evenodd" d="M109.591 67.5138C109.591 68.1935 109.532 68.8595 109.42 69.5069C112.329 70.1757 114.5 72.7934 114.5 75.9207C114.5 79.5543 111.57 82.5 107.955 82.5H98.1317C95.4424 76.6047 89.4345 72.5 82.4545 72.5C77.8664 72.5 73.6983 74.2736 70.6166 77.1635C70.5401 76.761 70.5 76.3456 70.5 75.9207C70.5 73.324 71.9965 71.0787 74.17 70.0086C74.1477 69.7588 74.1364 69.5057 74.1364 69.25C74.1364 64.6575 77.7995 60.9345 82.3182 60.9345C84.3447 60.9345 86.1992 61.6833 87.6283 62.9236C89.3924 58.8489 93.4334 56 98.1364 56C104.463 56 109.591 61.1549 109.591 67.5138Z" fill="url(#paint2_linear_546_359)"/>
</g>
<g filter="url(#filter4_i_546_359)">
<path fill-rule="evenodd" clip-rule="evenodd" d="M76.6973 63.2073C77.5524 61.0831 78.6783 59.0553 80.0594 57.1802C76.3686 57.5924 72.6901 58.7606 69.2544 60.7442C61.7763 65.0617 57.0681 72.3069 55.7899 80.1147C56.731 79.8842 57.7148 79.762 58.7273 79.762C61.7671 79.762 64.5488 80.864 66.6924 82.6893C67.6176 80.5928 68.9601 78.7168 70.6166 77.1634C70.5401 76.7609 70.5 76.3455 70.5 75.9206C70.5 73.3239 71.9965 71.0786 74.1699 70.0085C74.1477 69.7587 74.1363 69.5056 74.1363 69.2499C74.1363 66.8697 75.1203 64.7231 76.6973 63.2073Z" fill="url(#paint3_linear_546_359)"/>
</g>
<g filter="url(#filter5_i_546_359)">
<path d="M60.2872 125C60.2059 125 60.128 124.967 60.0706 124.908C60.0131 124.85 59.9808 124.77 59.9808 124.688V123.879L59.5851 124.284C59.5276 124.342 59.4496 124.375 59.3683 124.375C59.287 124.375 59.2091 124.342 59.1516 124.283C59.0942 124.225 59.062 124.145 59.062 124.062C59.0621 123.979 59.0944 123.9 59.1519 123.841L59.9808 122.996V120.541L57.8979 121.768L57.594 122.924C57.5729 123.004 57.5215 123.073 57.451 123.114C57.3806 123.155 57.2969 123.167 57.2185 123.145C57.14 123.123 57.0731 123.071 57.0326 122.999C56.992 122.927 56.9811 122.842 57.0022 122.762L57.1474 122.211L56.4612 122.614C56.3909 122.655 56.3076 122.666 56.2296 122.644C56.1515 122.623 56.085 122.57 56.0446 122.499C56.0041 122.428 55.993 122.343 56.0137 122.263C56.0344 122.183 56.0851 122.115 56.1549 122.073L56.8411 121.669L56.2995 121.521C56.2606 121.511 56.2242 121.492 56.1923 121.467C56.1604 121.442 56.1337 121.411 56.1136 121.375C56.0935 121.34 56.0805 121.301 56.0753 121.26C56.0701 121.219 56.0728 121.178 56.0832 121.138C56.0937 121.098 56.1117 121.061 56.1362 121.029C56.1608 120.996 56.1914 120.969 56.2262 120.948C56.2611 120.928 56.2996 120.915 56.3395 120.909C56.3794 120.904 56.4199 120.907 56.4588 120.918L57.5909 121.227L59.6745 120L57.5916 118.773L56.4582 119.082C56.3802 119.102 56.2977 119.09 56.2285 119.048C56.1593 119.007 56.1089 118.939 56.0882 118.86C56.0674 118.781 56.078 118.696 56.1177 118.625C56.1573 118.554 56.2228 118.501 56.3001 118.479L56.8411 118.331L56.1549 117.927C56.1198 117.907 56.089 117.879 56.0642 117.847C56.0395 117.814 56.0213 117.777 56.0107 117.737C56.0001 117.697 55.9973 117.656 56.0026 117.615C56.0078 117.574 56.0208 117.535 56.041 117.499C56.0612 117.463 56.0882 117.432 56.1203 117.407C56.1523 117.382 56.189 117.364 56.228 117.353C56.2671 117.343 56.3078 117.34 56.3478 117.346C56.3878 117.351 56.4264 117.365 56.4612 117.386L57.1474 117.789L57.0022 117.237C56.9911 117.198 56.9878 117.156 56.9926 117.115C56.9975 117.073 57.0103 117.034 57.0304 116.998C57.0504 116.962 57.0773 116.93 57.1095 116.905C57.1417 116.879 57.1785 116.861 57.2177 116.85C57.257 116.839 57.298 116.837 57.3383 116.842C57.3786 116.848 57.4173 116.862 57.4524 116.883C57.4874 116.904 57.518 116.932 57.5423 116.965C57.5666 116.998 57.5842 117.036 57.594 117.076L57.8973 118.232L59.9808 119.459V117.004L59.1519 116.159C59.1235 116.13 59.1009 116.095 59.0854 116.057C59.07 116.019 59.0621 115.979 59.062 115.938C59.062 115.897 59.0699 115.856 59.0853 115.818C59.1006 115.78 59.1232 115.746 59.1516 115.717C59.1801 115.688 59.2139 115.664 59.251 115.649C59.2882 115.633 59.328 115.625 59.3683 115.625C59.4085 115.625 59.4484 115.633 59.4856 115.649C59.5228 115.664 59.5566 115.687 59.5851 115.716L59.9808 116.121V115.312C59.9808 115.23 60.0131 115.15 60.0706 115.092C60.128 115.033 60.2059 115 60.2872 115C60.3684 115 60.4463 115.033 60.5038 115.092C60.5612 115.15 60.5935 115.23 60.5935 115.312V116.121L60.9899 115.716C61.0474 115.658 61.1254 115.625 61.2066 115.625C61.2879 115.625 61.3659 115.658 61.4233 115.717C61.4807 115.775 61.513 115.855 61.5129 115.938C61.5129 116.021 61.4805 116.1 61.423 116.159L60.5935 117.004V119.459L62.6765 118.232L62.9803 117.076C63.0014 116.996 63.0529 116.927 63.1233 116.886C63.1937 116.845 63.2774 116.833 63.3559 116.855C63.4344 116.877 63.5012 116.929 63.5418 117.001C63.5823 117.073 63.5933 117.158 63.5721 117.238L63.4276 117.789L64.1137 117.386C64.184 117.345 64.2673 117.334 64.3454 117.356C64.4234 117.377 64.4899 117.43 64.5304 117.501C64.5708 117.572 64.5819 117.657 64.5613 117.737C64.5406 117.817 64.4898 117.885 64.42 117.927L63.7339 118.331L64.2748 118.479C64.3533 118.5 64.4202 118.553 64.4607 118.625C64.5013 118.696 64.5122 118.782 64.4911 118.862C64.47 118.942 64.4185 119.01 64.3481 119.052C64.2777 119.093 64.194 119.104 64.1155 119.082L62.9834 118.773L60.8998 120L62.9828 121.227L64.1155 120.918C64.194 120.896 64.2776 120.907 64.348 120.949C64.4184 120.99 64.4697 121.058 64.4908 121.138C64.5118 121.218 64.5008 121.304 64.4602 121.376C64.4196 121.447 64.3527 121.5 64.2742 121.521L63.7333 121.669L64.4194 122.073C64.4892 122.115 64.54 122.183 64.5606 122.263C64.5813 122.343 64.5702 122.428 64.5298 122.499C64.4893 122.57 64.4228 122.623 64.3448 122.644C64.2667 122.666 64.1834 122.655 64.1131 122.614L63.4269 122.211L63.5715 122.762C63.5827 122.802 63.5859 122.844 63.5811 122.885C63.5763 122.927 63.5634 122.966 63.5434 123.002C63.5233 123.038 63.4964 123.07 63.4642 123.095C63.4321 123.121 63.3953 123.139 63.356 123.15C63.3167 123.161 63.2757 123.163 63.2354 123.158C63.1952 123.152 63.1564 123.138 63.1214 123.117C63.0863 123.096 63.0558 123.068 63.0315 123.035C63.0071 123.002 62.9895 122.964 62.9797 122.924L62.6765 121.768L60.5935 120.541V122.996L61.4224 123.841C61.4799 123.9 61.5123 123.979 61.5123 124.062C61.5124 124.145 61.4801 124.225 61.4227 124.283C61.3653 124.342 61.2873 124.375 61.206 124.375C61.1247 124.375 61.0468 124.342 60.9893 124.284L60.5929 123.879V124.688C60.5929 124.77 60.5606 124.85 60.5032 124.908C60.4457 124.967 60.3684 125 60.2872 125Z" fill="#5D6DFD"/>
</g>
<g filter="url(#filter6_i_546_359)">
<path d="M87.0923 125C87.0147 125 86.9404 124.967 86.8855 124.908C86.8307 124.85 86.7999 124.77 86.7999 124.688V123.879L86.4221 124.284C86.3672 124.342 86.2928 124.375 86.2152 124.375C86.1376 124.375 86.0632 124.342 86.0084 124.283C85.9536 124.225 85.9228 124.145 85.9228 124.062C85.9229 123.979 85.9538 123.9 86.0087 123.841L86.7999 122.996V120.541L84.8116 121.768L84.5216 122.924C84.5014 123.004 84.4523 123.073 84.3851 123.114C84.3178 123.155 84.238 123.167 84.1631 123.145C84.0882 123.123 84.0243 123.071 83.9856 122.999C83.9469 122.927 83.9365 122.842 83.9566 122.762L84.0952 122.211L83.4403 122.614C83.3732 122.655 83.2937 122.666 83.2191 122.644C83.1446 122.623 83.0811 122.57 83.0425 122.499C83.0039 122.428 82.9933 122.343 83.0131 122.263C83.0328 122.183 83.0813 122.115 83.1479 122.073L83.8028 121.669L83.2859 121.521C83.2488 121.511 83.214 121.492 83.1836 121.467C83.1531 121.442 83.1276 121.411 83.1084 121.375C83.0893 121.34 83.0768 121.301 83.0719 121.26C83.0669 121.219 83.0695 121.178 83.0795 121.138C83.0894 121.098 83.1066 121.061 83.1301 121.029C83.1535 120.996 83.1827 120.969 83.2159 120.948C83.2492 120.928 83.286 120.915 83.3241 120.909C83.3621 120.904 83.4008 120.907 83.4379 120.918L84.5186 121.227L86.5075 120L84.5192 118.773L83.4373 119.082C83.3629 119.102 83.2842 119.09 83.2181 119.048C83.1521 119.007 83.1039 118.939 83.0841 118.86C83.0644 118.781 83.0745 118.696 83.1123 118.625C83.1502 118.554 83.2127 118.501 83.2865 118.479L83.8028 118.331L83.1479 117.927C83.1144 117.907 83.0849 117.879 83.0613 117.847C83.0377 117.814 83.0203 117.777 83.0102 117.737C83.0001 117.697 82.9975 117.656 83.0024 117.615C83.0074 117.574 83.0199 117.535 83.0392 117.499C83.0585 117.463 83.0842 117.432 83.1148 117.407C83.1454 117.382 83.1804 117.364 83.2177 117.353C83.2549 117.343 83.2938 117.34 83.332 117.346C83.3702 117.351 83.407 117.365 83.4403 117.386L84.0952 117.789L83.9566 117.237C83.946 117.198 83.9429 117.156 83.9475 117.115C83.9521 117.073 83.9644 117.034 83.9835 116.998C84.0027 116.962 84.0283 116.93 84.0591 116.905C84.0898 116.879 84.1249 116.861 84.1624 116.85C84.1999 116.839 84.239 116.837 84.2774 116.842C84.3159 116.848 84.3529 116.862 84.3864 116.883C84.4198 116.904 84.449 116.932 84.4722 116.965C84.4954 116.998 84.5122 117.036 84.5216 117.076L84.811 118.232L86.7999 119.459V117.004L86.0087 116.159C85.9815 116.13 85.9599 116.095 85.9452 116.057C85.9305 116.019 85.9229 115.979 85.9228 115.938C85.9228 115.897 85.9304 115.856 85.945 115.818C85.9597 115.78 85.9812 115.746 86.0084 115.717C86.0355 115.688 86.0678 115.664 86.1033 115.649C86.1387 115.633 86.1768 115.625 86.2152 115.625C86.2536 115.625 86.2917 115.633 86.3272 115.649C86.3627 115.664 86.3949 115.687 86.4221 115.716L86.7999 116.121V115.312C86.7999 115.23 86.8307 115.15 86.8855 115.092C86.9404 115.033 87.0147 115 87.0923 115C87.1698 115 87.2442 115.033 87.2991 115.092C87.3539 115.15 87.3847 115.23 87.3847 115.312V116.121L87.7631 115.716C87.818 115.658 87.8924 115.625 87.97 115.625C88.0476 115.625 88.122 115.658 88.1768 115.717C88.2316 115.775 88.2624 115.855 88.2623 115.938C88.2623 116.021 88.2314 116.1 88.1765 116.159L87.3847 117.004V119.459L89.373 118.232L89.663 117.076C89.6832 116.996 89.7323 116.927 89.7995 116.886C89.8668 116.845 89.9466 116.833 90.0215 116.855C90.0964 116.877 90.1603 116.929 90.199 117.001C90.2377 117.073 90.2481 117.158 90.2279 117.238L90.0899 117.789L90.7449 117.386C90.812 117.345 90.8915 117.334 90.966 117.356C91.0405 117.377 91.104 117.43 91.1426 117.501C91.1812 117.572 91.1918 117.657 91.1721 117.737C91.1524 117.817 91.1039 117.885 91.0373 117.927L90.3823 118.331L90.8987 118.479C90.9736 118.5 91.0374 118.553 91.0762 118.625C91.1149 118.696 91.1253 118.782 91.1051 118.862C91.085 118.942 91.0359 119.01 90.9686 119.052C90.9014 119.093 90.8216 119.104 90.7467 119.082L89.666 118.773L87.6771 120L89.6654 121.227L90.7467 120.918C90.8216 120.896 90.9014 120.907 90.9686 120.949C91.0357 120.99 91.0848 121.058 91.1048 121.138C91.1249 121.218 91.1144 121.304 91.0757 121.376C91.0369 121.447 90.973 121.5 90.8981 121.521L90.3817 121.669L91.0367 122.073C91.1033 122.115 91.1518 122.183 91.1715 122.263C91.1913 122.343 91.1807 122.428 91.1421 122.499C91.1035 122.57 91.04 122.623 90.9654 122.644C90.8909 122.666 90.8114 122.655 90.7443 122.614L90.0894 122.211L90.2274 122.762C90.238 122.802 90.2411 122.844 90.2365 122.885C90.2319 122.927 90.2196 122.966 90.2005 123.002C90.1813 123.038 90.1557 123.07 90.125 123.095C90.0942 123.121 90.0591 123.139 90.0216 123.15C89.9841 123.161 89.945 123.163 89.9066 123.158C89.8681 123.152 89.8311 123.138 89.7977 123.117C89.7642 123.096 89.7351 123.068 89.7118 123.035C89.6886 123.002 89.6718 122.964 89.6625 122.924L89.373 121.768L87.3847 120.541V122.996L88.1759 123.841C88.2308 123.9 88.2617 123.979 88.2617 124.062C88.2618 124.145 88.231 124.225 88.1762 124.283C88.1214 124.342 88.047 124.375 87.9694 124.375C87.8918 124.375 87.8174 124.342 87.7625 124.284L87.3841 123.879V124.688C87.3841 124.77 87.3533 124.85 87.2985 124.908C87.2436 124.967 87.1698 125 87.0923 125Z" fill="#5D6DFD"/>
</g>
<g filter="url(#filter7_i_546_359)">
<path d="M73.5015 133C73.4162 133 73.3344 132.967 73.2741 132.908C73.2138 132.85 73.1799 132.77 73.1799 132.688V131.879L72.7643 132.284C72.7039 132.342 72.6221 132.375 72.5367 132.375C72.4514 132.375 72.3695 132.342 72.3092 132.283C72.2489 132.225 72.2151 132.145 72.2151 132.062C72.2152 131.979 72.2492 131.9 72.3095 131.841L73.1799 130.996V128.541L70.9928 129.768L70.6737 130.924C70.6515 131.004 70.5975 131.073 70.5236 131.114C70.4496 131.155 70.3618 131.167 70.2794 131.145C70.197 131.123 70.1268 131.071 70.0842 130.999C70.0416 130.927 70.0301 130.842 70.0523 130.762L70.2048 130.211L69.4843 130.614C69.4105 130.655 69.323 130.666 69.2411 130.644C69.1591 130.623 69.0893 130.57 69.0468 130.499C69.0043 130.428 68.9927 130.343 69.0144 130.263C69.0361 130.183 69.0894 130.115 69.1627 130.073L69.8831 129.669L69.3145 129.521C69.2737 129.511 69.2354 129.492 69.2019 129.467C69.1684 129.442 69.1404 129.411 69.1193 129.375C69.0982 129.34 69.0845 129.301 69.0791 129.26C69.0736 129.219 69.0764 129.178 69.0874 129.138C69.0984 129.098 69.1173 129.061 69.1431 129.029C69.1688 128.996 69.2009 128.969 69.2375 128.948C69.2742 128.928 69.3146 128.915 69.3565 128.909C69.3984 128.904 69.4409 128.907 69.4817 128.918L70.6705 129.227L72.8583 128L70.6711 126.773L69.4811 127.082C69.3992 127.102 69.3126 127.09 69.2399 127.048C69.1673 127.007 69.1143 126.939 69.0926 126.86C69.0708 126.781 69.0819 126.696 69.1236 126.625C69.1652 126.554 69.234 126.501 69.3151 126.479L69.8831 126.331L69.1627 125.927C69.1258 125.907 69.0934 125.879 69.0674 125.847C69.0415 125.814 69.0223 125.777 69.0112 125.737C69.0001 125.697 68.9972 125.656 69.0027 125.615C69.0082 125.574 69.0219 125.535 69.0431 125.499C69.0643 125.463 69.0926 125.432 69.1263 125.407C69.16 125.382 69.1984 125.364 69.2394 125.353C69.2804 125.343 69.3232 125.34 69.3652 125.346C69.4072 125.351 69.4477 125.365 69.4843 125.386L70.2048 125.789L70.0523 125.237C70.0406 125.198 70.0372 125.156 70.0423 125.115C70.0473 125.073 70.0608 125.034 70.0819 124.998C70.1029 124.962 70.1312 124.93 70.165 124.905C70.1987 124.879 70.2374 124.861 70.2786 124.85C70.3199 124.839 70.3629 124.837 70.4052 124.842C70.4475 124.848 70.4882 124.862 70.525 124.883C70.5618 124.904 70.5938 124.932 70.6194 124.965C70.6449 124.998 70.6634 125.036 70.6737 125.076L70.9921 126.232L73.1799 127.459V125.004L72.3095 124.159C72.2796 124.13 72.2559 124.095 72.2397 124.057C72.2235 124.019 72.2152 123.979 72.2151 123.938C72.2151 123.897 72.2234 123.856 72.2395 123.818C72.2557 123.78 72.2794 123.746 72.3092 123.717C72.3391 123.688 72.3745 123.664 72.4136 123.649C72.4526 123.633 72.4945 123.625 72.5367 123.625C72.579 123.625 72.6208 123.633 72.6599 123.649C72.6989 123.664 72.7344 123.687 72.7643 123.716L73.1799 124.121V123.312C73.1799 123.23 73.2138 123.15 73.2741 123.092C73.3344 123.033 73.4162 123 73.5015 123C73.5868 123 73.6686 123.033 73.729 123.092C73.7893 123.15 73.8232 123.23 73.8232 123.312V124.121L74.2394 123.716C74.2998 123.658 74.3816 123.625 74.467 123.625C74.5523 123.625 74.6342 123.658 74.6945 123.717C74.7548 123.775 74.7886 123.855 74.7886 123.938C74.7885 124.021 74.7545 124.1 74.6941 124.159L73.8232 125.004V127.459L76.0103 126.232L76.3293 125.076C76.3515 124.996 76.4055 124.927 76.4795 124.886C76.5534 124.845 76.6413 124.833 76.7237 124.855C76.8061 124.877 76.8763 124.929 76.9189 125.001C76.9615 125.073 76.9729 125.158 76.9507 125.238L76.7989 125.789L77.5194 125.386C77.5932 125.345 77.6807 125.334 77.7626 125.356C77.8446 125.377 77.9144 125.43 77.9569 125.501C77.9994 125.572 78.011 125.657 77.9893 125.737C77.9676 125.817 77.9143 125.885 77.841 125.927L77.1206 126.331L77.6886 126.479C77.771 126.5 77.8412 126.553 77.8838 126.625C77.9264 126.696 77.9378 126.782 77.9156 126.862C77.8935 126.942 77.8395 127.01 77.7655 127.052C77.6916 127.093 77.6037 127.104 77.5213 127.082L76.3326 126.773L74.1448 128L76.3319 129.227L77.5213 128.918C77.6037 128.896 77.6915 128.907 77.7654 128.949C77.8393 128.99 77.8932 129.058 77.9153 129.138C77.9374 129.218 77.9259 129.304 77.8832 129.376C77.8406 129.447 77.7703 129.5 77.6879 129.521L77.1199 129.669L77.8404 130.073C77.9137 130.115 77.967 130.183 77.9887 130.263C78.0104 130.343 77.9987 130.428 77.9563 130.499C77.9138 130.57 77.844 130.623 77.762 130.644C77.68 130.666 77.5926 130.655 77.5188 130.614L76.7983 130.211L76.9501 130.762C76.9618 130.802 76.9652 130.844 76.9601 130.885C76.9551 130.927 76.9416 130.966 76.9205 131.002C76.8995 131.038 76.8712 131.07 76.8374 131.095C76.8037 131.121 76.765 131.139 76.7238 131.15C76.6825 131.161 76.6395 131.163 76.5972 131.158C76.5549 131.152 76.5142 131.138 76.4774 131.117C76.4406 131.096 76.4086 131.068 76.383 131.035C76.3575 131.002 76.339 130.964 76.3287 130.924L76.0103 129.768L73.8232 128.541V130.996L74.6935 131.841C74.7539 131.9 74.7879 131.979 74.7879 132.062C74.788 132.145 74.7541 132.225 74.6938 132.283C74.6335 132.342 74.5517 132.375 74.4663 132.375C74.381 132.375 74.2991 132.342 74.2387 132.284L73.8225 131.879V132.688C73.8225 132.77 73.7886 132.85 73.7283 132.908C73.668 132.967 73.5868 133 73.5015 133Z" fill="#5D6DFD"/>
</g>
<defs>
<filter id="filter0_f_546_359" x="0.716675" y="0.306396" width="159.773" height="164.807" filterUnits="userSpaceOnUse" color-interpolation-filters="sRGB">
<feFlood flood-opacity="0" result="BackgroundImageFix"/>
<feBlend mode="normal" in="SourceGraphic" in2="BackgroundImageFix" result="shape"/>
<feGaussianBlur stdDeviation="26.5" result="effect1_foregroundBlur_546_359"/>
</filter>
<filter id="filter1_i_546_359" x="51.5" y="63.5" width="14.5" height="19" filterUnits="userSpaceOnUse" color-interpolation-filters="sRGB">
<feFlood flood-opacity="0" result="BackgroundImageFix"/>
<feBlend mode="normal" in="SourceGraphic" in2="BackgroundImageFix" result="shape"/>
<feColorMatrix in="SourceAlpha" type="matrix" values="0 0 0 0 0 0 0 0 0 0 0 0 0 0 0 0 0 0 127 0" result="hardAlpha"/>
<feOffset dy="11"/>
<feGaussianBlur stdDeviation="5"/>
<feComposite in2="hardAlpha" operator="arithmetic" k2="-1" k3="1"/>
<feColorMatrix type="matrix" values="0 0 0 0 1 0 0 0 0 1 0 0 0 0 1 0 0 0 1 0"/>
<feBlend mode="normal" in2="shape" result="effect1_innerShadow_546_359"/>
</filter>
<filter id="filter2_i_546_359" x="41" y="72.5" width="66" height="49" filterUnits="userSpaceOnUse" color-interpolation-filters="sRGB">
<feFlood flood-opacity="0" result="BackgroundImageFix"/>
<feBlend mode="normal" in="SourceGraphic" in2="BackgroundImageFix" result="shape"/>
<feColorMatrix in="SourceAlpha" type="matrix" values="0 0 0 0 0 0 0 0 0 0 0 0 0 0 0 0 0 0 127 0" result="hardAlpha"/>
<feOffset dy="11"/>
<feGaussianBlur stdDeviation="5"/>
<feComposite in2="hardAlpha" operator="arithmetic" k2="-1" k3="1"/>
<feColorMatrix type="matrix" values="0 0 0 0 1 0 0 0 0 1 0 0 0 0 1 0 0 0 1 0"/>
<feBlend mode="normal" in2="shape" result="effect1_innerShadow_546_359"/>
</filter>
<filter id="filter3_i_546_359" x="70.5" y="56" width="44" height="36.5" filterUnits="userSpaceOnUse" color-interpolation-filters="sRGB">
<feFlood flood-opacity="0" result="BackgroundImageFix"/>
<feBlend mode="normal" in="SourceGraphic" in2="BackgroundImageFix" result="shape"/>
<feColorMatrix in="SourceAlpha" type="matrix" values="0 0 0 0 0 0 0 0 0 0 0 0 0 0 0 0 0 0 127 0" result="hardAlpha"/>
<feOffset dy="11"/>
<feGaussianBlur stdDeviation="5"/>
<feComposite in2="hardAlpha" operator="arithmetic" k2="-1" k3="1"/>
<feColorMatrix type="matrix" values="0 0 0 0 1 0 0 0 0 1 0 0 0 0 1 0 0 0 1 0"/>
<feBlend mode="normal" in2="shape" result="effect1_innerShadow_546_359"/>
</filter>
<filter id="filter4_i_546_359" x="55.7899" y="57.1802" width="24.2694" height="29.509" filterUnits="userSpaceOnUse" color-interpolation-filters="sRGB">
<feFlood flood-opacity="0" result="BackgroundImageFix"/>
<feBlend mode="normal" in="SourceGraphic" in2="BackgroundImageFix" result="shape"/>
<feColorMatrix in="SourceAlpha" type="matrix" values="0 0 0 0 0 0 0 0 0 0 0 0 0 0 0 0 0 0 127 0" result="hardAlpha"/>
<feOffset dy="4"/>
<feGaussianBlur stdDeviation="4"/>
<feComposite in2="hardAlpha" operator="arithmetic" k2="-1" k3="1"/>
<feColorMatrix type="matrix" values="0 0 0 0 1 0 0 0 0 1 0 0 0 0 1 0 0 0 0.55 0"/>
<feBlend mode="normal" in2="shape" result="effect1_innerShadow_546_359"/>
</filter>
<filter id="filter5_i_546_359" x="56" y="115" width="8.57141" height="13" filterUnits="userSpaceOnUse" color-interpolation-filters="sRGB">
<feFlood flood-opacity="0" result="BackgroundImageFix"/>
<feBlend mode="normal" in="SourceGraphic" in2="BackgroundImageFix" result="shape"/>
<feColorMatrix in="SourceAlpha" type="matrix" values="0 0 0 0 0 0 0 0 0 0 0 0 0 0 0 0 0 0 127 0" result="hardAlpha"/>
<feOffset dy="9"/>
<feGaussianBlur stdDeviation="1.5"/>
<feComposite in2="hardAlpha" operator="arithmetic" k2="-1" k3="1"/>
<feColorMatrix type="matrix" values="0 0 0 0 1 0 0 0 0 1 0 0 0 0 1 0 0 0 0.21 0"/>
<feBlend mode="normal" in2="shape" result="effect1_innerShadow_546_359"/>
</filter>
<filter id="filter6_i_546_359" x="83" y="115" width="8.18176" height="13" filterUnits="userSpaceOnUse" color-interpolation-filters="sRGB">
<feFlood flood-opacity="0" result="BackgroundImageFix"/>
<feBlend mode="normal" in="SourceGraphic" in2="BackgroundImageFix" result="shape"/>
<feColorMatrix in="SourceAlpha" type="matrix" values="0 0 0 0 0 0 0 0 0 0 0 0 0 0 0 0 0 0 127 0" result="hardAlpha"/>
<feOffset dy="9"/>
<feGaussianBlur stdDeviation="1.5"/>
<feComposite in2="hardAlpha" operator="arithmetic" k2="-1" k3="1"/>
<feColorMatrix type="matrix" values="0 0 0 0 1 0 0 0 0 1 0 0 0 0 1 0 0 0 0.21 0"/>
<feBlend mode="normal" in2="shape" result="effect1_innerShadow_546_359"/>
</filter>
<filter id="filter7_i_546_359" x="69" y="123" width="9" height="13" filterUnits="userSpaceOnUse" color-interpolation-filters="sRGB">
<feFlood flood-opacity="0" result="BackgroundImageFix"/>
<feBlend mode="normal" in="SourceGraphic" in2="BackgroundImageFix" result="shape"/>
<feColorMatrix in="SourceAlpha" type="matrix" values="0 0 0 0 0 0 0 0 0 0 0 0 0 0 0 0 0 0 127 0" result="hardAlpha"/>
<feOffset dy="9"/>
<feGaussianBlur stdDeviation="1.5"/>
<feComposite in2="hardAlpha" operator="arithmetic" k2="-1" k3="1"/>
<feColorMatrix type="matrix" values="0 0 0 0 1 0 0 0 0 1 0 0 0 0 1 0 0 0 0.21 0"/>
<feBlend mode="normal" in2="shape" result="effect1_innerShadow_546_359"/>
</filter>
<linearGradient id="paint0_linear_546_359" x1="52.4223" y1="71.6964" x2="67.5118" y2="60.9041" gradientUnits="userSpaceOnUse">
<stop stop-color="white" stop-opacity="0.65"/>
<stop offset="1" stop-color="white" stop-opacity="0.58"/>
</linearGradient>
<linearGradient id="paint1_linear_546_359" x1="45.1979" y1="108.018" x2="111.56" y2="58.1619" gradientUnits="userSpaceOnUse">
<stop stop-color="white" stop-opacity="0.65"/>
<stop offset="1" stop-color="white" stop-opacity="0.58"/>
</linearGradient>
<linearGradient id="paint2_linear_546_359" x1="111.701" y1="80.1339" x2="66.8549" y2="47.0779" gradientUnits="userSpaceOnUse">
<stop stop-color="white" stop-opacity="0.65"/>
<stop offset="1" stop-color="white" stop-opacity="0.58"/>
</linearGradient>
<linearGradient id="paint3_linear_546_359" x1="81.4051" y1="52.7298" x2="71.5931" y2="112.142" gradientUnits="userSpaceOnUse">
<stop stop-color="#FFEE94"/>
<stop offset="1" stop-color="#FF9900"/>
</linearGradient>
</defs>
</svg>
