<svg width="120" height="120" viewBox="0 0 120 120" fill="none" xmlns="http://www.w3.org/2000/svg">
<g filter="url(#filter0_i_546_349)">
<path d="M46.8259 41.0872C46.8629 40.8674 46.8822 40.6412 46.8822 40.4103C46.8822 38.2507 45.1922 36.5 43.1074 36.5C41.5576 36.5 40.2259 37.4676 39.6446 38.8514C39.1736 38.4302 38.5625 38.1759 37.8946 38.1759C36.4055 38.1759 35.1983 39.4403 35.1983 41C35.1983 41.0869 35.2021 41.1728 35.2094 41.2576C34.4932 41.6211 34 42.3836 34 43.2655C34 44.4996 34.9657 45.5 36.157 45.5H46.343C47.5343 45.5 48.5 44.4996 48.5 43.2655C48.5 42.2034 47.7847 41.3144 46.8259 41.0872Z" fill="url(#paint0_linear_546_349)"/>
</g>
<g filter="url(#filter1_i_546_349)">
<path d="M81.8799 65.3781C82.0485 64.4253 82.1364 63.4452 82.1364 62.4448C82.1364 53.0865 74.4438 45.5 64.9545 45.5C57.9001 45.5 51.8386 49.6928 49.1925 55.6894C47.0488 53.8641 44.2671 52.7621 41.2273 52.7621C34.4492 52.7621 28.9545 58.2412 28.9545 65C28.9545 65.3764 28.9716 65.7488 29.0049 66.1165C25.7448 67.6913 23.5 70.9957 23.5 74.8172C23.5 80.1649 27.8957 84.5 33.3182 84.5H79.6818C85.1043 84.5 89.5 80.1649 89.5 74.8172C89.5 70.2148 86.2441 66.3624 81.8799 65.3781Z" fill="url(#paint1_linear_546_349)"/>
</g>
<g filter="url(#filter2_i_546_349)">
<path fill-rule="evenodd" clip-rule="evenodd" d="M92.0909 40.5138C92.0909 41.1935 92.0323 41.8595 91.9199 42.5069C94.8294 43.1757 97 45.7934 97 48.9207C97 52.5543 94.0695 55.5 90.4545 55.5H80.6317C77.9424 49.6047 71.9345 45.5 64.9545 45.5C60.3664 45.5 56.1983 47.2736 53.1166 50.1635C53.0401 49.761 53 49.3456 53 48.9207C53 46.324 54.4965 44.0787 56.67 43.0086C56.6477 42.7588 56.6364 42.5057 56.6364 42.25C56.6364 37.6575 60.2995 33.9345 64.8182 33.9345C66.8447 33.9345 68.6992 34.6833 70.1283 35.9236C71.8924 31.8489 75.9334 29 80.6364 29C86.9625 29 92.0909 34.1549 92.0909 40.5138Z" fill="url(#paint2_linear_546_349)"/>
</g>
<g filter="url(#filter3_i_546_349)">
<path d="M42.2872 99C42.2059 99 42.128 98.9671 42.0706 98.9085C42.0131 98.8499 41.9808 98.7704 41.9808 98.6875V97.8794L41.5851 98.2838C41.5276 98.3423 41.4496 98.3752 41.3683 98.3752C41.287 98.3751 41.2091 98.3421 41.1516 98.2834C41.0942 98.2248 41.062 98.1452 41.062 98.0623C41.0621 97.9794 41.0944 97.8998 41.1519 97.8412L41.9808 96.9956V94.5413L39.8979 95.7681L39.594 96.9244C39.5729 97.0044 39.5215 97.0727 39.451 97.114C39.3806 97.1554 39.2969 97.1665 39.2185 97.145C39.14 97.1235 39.0731 97.071 39.0326 96.9991C38.992 96.9273 38.9811 96.8419 39.0022 96.7619L39.1474 96.2106L38.4612 96.6144C38.3909 96.6552 38.3076 96.6659 38.2296 96.6443C38.1515 96.6227 38.085 96.5704 38.0446 96.499C38.0041 96.4275 37.993 96.3426 38.0137 96.2628C38.0344 96.1831 38.0851 96.1149 38.1549 96.0731L38.8411 95.6694L38.2995 95.5212C38.2606 95.5106 38.2242 95.4922 38.1923 95.4672C38.1604 95.4421 38.1337 95.411 38.1136 95.3754C38.0935 95.3398 38.0805 95.3005 38.0753 95.2598C38.0701 95.2191 38.0728 95.1778 38.0832 95.1381C38.0937 95.0985 38.1117 95.0613 38.1362 95.0288C38.1608 94.9962 38.1914 94.969 38.2262 94.9485C38.2611 94.928 38.2996 94.9147 38.3395 94.9094C38.3794 94.9041 38.4199 94.9068 38.4588 94.9175L39.5909 95.2269L41.6745 94L39.5916 92.7731L38.4582 93.0825C38.3802 93.1023 38.2977 93.0901 38.2285 93.0485C38.1593 93.0068 38.1089 92.9391 38.0882 92.8599C38.0674 92.7807 38.078 92.6964 38.1177 92.6251C38.1573 92.5538 38.2228 92.5012 38.3001 92.4787L38.8411 92.3306L38.1549 91.9269C38.1198 91.9065 38.089 91.8793 38.0642 91.8467C38.0395 91.8141 38.0213 91.7769 38.0107 91.7371C38.0001 91.6973 37.9973 91.6558 38.0026 91.6149C38.0078 91.5741 38.0208 91.5347 38.041 91.499C38.0612 91.4633 38.0882 91.432 38.1203 91.407C38.1523 91.3819 38.189 91.3636 38.228 91.3531C38.2671 91.3426 38.3078 91.34 38.3478 91.3456C38.3878 91.3512 38.4264 91.3648 38.4612 91.3856L39.1474 91.7894L39.0022 91.2375C38.9911 91.1976 38.9878 91.1559 38.9926 91.1147C38.9975 91.0735 39.0103 91.0337 39.0304 90.9976C39.0504 90.9615 39.0773 90.9299 39.1095 90.9045C39.1417 90.8792 39.1785 90.8606 39.2177 90.8499C39.257 90.8392 39.298 90.8366 39.3383 90.8422C39.3786 90.8478 39.4173 90.8616 39.4524 90.8826C39.4874 90.9037 39.518 90.9317 39.5423 90.9649C39.5666 90.9982 39.5842 91.036 39.594 91.0763L39.8973 92.2319L41.9808 93.4587V91.0044L41.1519 90.1587C41.1235 90.1297 41.1009 90.0953 41.0854 90.0574C41.07 90.0194 41.0621 89.9788 41.062 89.9377C41.062 89.8967 41.0699 89.856 41.0853 89.818C41.1006 89.7801 41.1232 89.7456 41.1516 89.7166C41.1801 89.6875 41.2139 89.6645 41.251 89.6487C41.2882 89.633 41.328 89.6249 41.3683 89.6248C41.4085 89.6248 41.4484 89.6329 41.4856 89.6485C41.5228 89.6642 41.5566 89.6872 41.5851 89.7163L41.9808 90.1206V89.3125C41.9808 89.2296 42.0131 89.1501 42.0706 89.0915C42.128 89.0329 42.2059 89 42.2872 89C42.3684 89 42.4463 89.0329 42.5038 89.0915C42.5612 89.1501 42.5935 89.2296 42.5935 89.3125V90.1206L42.9899 89.7163C43.0474 89.6577 43.1254 89.6248 43.2066 89.6248C43.2879 89.6249 43.3659 89.6579 43.4233 89.7166C43.4807 89.7752 43.513 89.8548 43.5129 89.9377C43.5129 90.0206 43.4805 90.1002 43.423 90.1587L42.5935 91.0044V93.4587L44.6765 92.2319L44.9803 91.0756C45.0014 90.9956 45.0529 90.9273 45.1233 90.886C45.1937 90.8446 45.2774 90.8335 45.3559 90.855C45.4344 90.8765 45.5012 90.929 45.5418 91.0009C45.5823 91.0727 45.5933 91.1581 45.5721 91.2381L45.4276 91.7894L46.1137 91.3856C46.184 91.3448 46.2673 91.3341 46.3454 91.3557C46.4234 91.3773 46.4899 91.4296 46.5304 91.501C46.5708 91.5725 46.5819 91.6574 46.5613 91.7372C46.5406 91.8169 46.4898 91.8851 46.42 91.9269L45.7339 92.3306L46.2748 92.4787C46.3533 92.5003 46.4202 92.5528 46.4607 92.6246C46.5013 92.6965 46.5122 92.7818 46.4911 92.8619C46.47 92.9419 46.4185 93.0102 46.3481 93.0515C46.2777 93.0929 46.194 93.104 46.1155 93.0825L44.9834 92.7731L42.8998 94L44.9828 95.2269L46.1155 94.9175C46.194 94.896 46.2776 94.9073 46.348 94.9487C46.4184 94.9901 46.4697 95.0584 46.4908 95.1384C46.5118 95.2185 46.5008 95.3038 46.4602 95.3756C46.4196 95.4474 46.3527 95.4998 46.2742 95.5212L45.7333 95.6694L46.4194 96.0731C46.4892 96.1149 46.54 96.1831 46.5606 96.2628C46.5813 96.3426 46.5702 96.4275 46.5298 96.499C46.4893 96.5704 46.4228 96.6227 46.3448 96.6443C46.2667 96.6659 46.1834 96.6552 46.1131 96.6144L45.4269 96.2106L45.5715 96.7625C45.5827 96.8024 45.5859 96.8441 45.5811 96.8853C45.5763 96.9265 45.5634 96.9663 45.5434 97.0024C45.5233 97.0385 45.4964 97.0701 45.4642 97.0955C45.4321 97.1208 45.3953 97.1394 45.356 97.1501C45.3167 97.1608 45.2757 97.1634 45.2354 97.1578C45.1952 97.1522 45.1564 97.1384 45.1214 97.1174C45.0863 97.0963 45.0558 97.0683 45.0315 97.0351C45.0071 97.0018 44.9895 96.964 44.9797 96.9238L44.6765 95.7681L42.5935 94.5413V96.9956L43.4224 97.8412C43.4799 97.8998 43.5123 97.9794 43.5123 98.0623C43.5124 98.1452 43.4801 98.2248 43.4227 98.2834C43.3653 98.3421 43.2873 98.3751 43.206 98.3752C43.1247 98.3752 43.0468 98.3423 42.9893 98.2838L42.5929 97.8794V98.6875C42.5929 98.7704 42.5606 98.8499 42.5032 98.9085C42.4457 98.9671 42.3684 99 42.2872 99Z" fill="#93C0F7"/>
</g>
<g filter="url(#filter4_i_546_349)">
<path d="M69.0923 99C69.0147 99 68.9404 98.9671 68.8855 98.9085C68.8307 98.8499 68.7999 98.7704 68.7999 98.6875V97.8794L68.4221 98.2838C68.3672 98.3423 68.2928 98.3752 68.2152 98.3752C68.1376 98.3751 68.0632 98.3421 68.0084 98.2834C67.9536 98.2248 67.9228 98.1452 67.9228 98.0623C67.9229 97.9794 67.9538 97.8998 68.0087 97.8412L68.7999 96.9956V94.5413L66.8116 95.7681L66.5216 96.9244C66.5014 97.0044 66.4523 97.0727 66.3851 97.114C66.3178 97.1554 66.238 97.1665 66.1631 97.145C66.0882 97.1235 66.0243 97.071 65.9856 96.9991C65.9469 96.9273 65.9365 96.8419 65.9566 96.7619L66.0952 96.2106L65.4403 96.6144C65.3732 96.6552 65.2937 96.6659 65.2191 96.6443C65.1446 96.6227 65.0811 96.5704 65.0425 96.499C65.0039 96.4275 64.9933 96.3426 65.0131 96.2628C65.0328 96.1831 65.0813 96.1149 65.1479 96.0731L65.8028 95.6694L65.2859 95.5212C65.2488 95.5106 65.214 95.4922 65.1836 95.4672C65.1531 95.4421 65.1276 95.411 65.1084 95.3754C65.0893 95.3398 65.0768 95.3005 65.0719 95.2598C65.0669 95.2191 65.0695 95.1778 65.0795 95.1381C65.0894 95.0985 65.1066 95.0613 65.1301 95.0288C65.1535 94.9962 65.1827 94.969 65.2159 94.9485C65.2492 94.928 65.286 94.9147 65.3241 94.9094C65.3621 94.9041 65.4008 94.9068 65.4379 94.9175L66.5186 95.2269L68.5075 94L66.5192 92.7731L65.4373 93.0825C65.3629 93.1023 65.2842 93.0901 65.2181 93.0485C65.1521 93.0068 65.1039 92.9391 65.0841 92.8599C65.0644 92.7807 65.0745 92.6964 65.1123 92.6251C65.1502 92.5538 65.2127 92.5012 65.2865 92.4787L65.8028 92.3306L65.1479 91.9269C65.1144 91.9065 65.0849 91.8793 65.0613 91.8467C65.0377 91.8141 65.0203 91.7769 65.0102 91.7371C65.0001 91.6973 64.9975 91.6558 65.0024 91.6149C65.0074 91.5741 65.0199 91.5347 65.0392 91.499C65.0585 91.4633 65.0842 91.432 65.1148 91.407C65.1454 91.3819 65.1804 91.3636 65.2177 91.3531C65.2549 91.3426 65.2938 91.34 65.332 91.3456C65.3702 91.3512 65.407 91.3648 65.4403 91.3856L66.0952 91.7894L65.9566 91.2375C65.946 91.1976 65.9429 91.1559 65.9475 91.1147C65.9521 91.0735 65.9644 91.0337 65.9835 90.9976C66.0027 90.9615 66.0283 90.9299 66.0591 90.9045C66.0898 90.8792 66.1249 90.8606 66.1624 90.8499C66.1999 90.8392 66.239 90.8366 66.2774 90.8422C66.3159 90.8478 66.3529 90.8616 66.3864 90.8826C66.4198 90.9037 66.449 90.9317 66.4722 90.9649C66.4954 90.9982 66.5122 91.036 66.5216 91.0763L66.811 92.2319L68.7999 93.4587V91.0044L68.0087 90.1587C67.9815 90.1297 67.9599 90.0953 67.9452 90.0574C67.9305 90.0194 67.9229 89.9788 67.9228 89.9377C67.9228 89.8967 67.9304 89.856 67.945 89.818C67.9597 89.7801 67.9812 89.7456 68.0084 89.7166C68.0355 89.6875 68.0678 89.6645 68.1033 89.6487C68.1387 89.633 68.1768 89.6249 68.2152 89.6248C68.2536 89.6248 68.2917 89.6329 68.3272 89.6485C68.3627 89.6642 68.3949 89.6872 68.4221 89.7163L68.7999 90.1206V89.3125C68.7999 89.2296 68.8307 89.1501 68.8855 89.0915C68.9404 89.0329 69.0147 89 69.0923 89C69.1698 89 69.2442 89.0329 69.2991 89.0915C69.3539 89.1501 69.3847 89.2296 69.3847 89.3125V90.1206L69.7631 89.7163C69.818 89.6577 69.8924 89.6248 69.97 89.6248C70.0476 89.6249 70.122 89.6579 70.1768 89.7166C70.2316 89.7752 70.2624 89.8548 70.2623 89.9377C70.2623 90.0206 70.2314 90.1002 70.1765 90.1587L69.3847 91.0044V93.4587L71.373 92.2319L71.663 91.0756C71.6832 90.9956 71.7323 90.9273 71.7995 90.886C71.8668 90.8446 71.9466 90.8335 72.0215 90.855C72.0964 90.8765 72.1603 90.929 72.199 91.0009C72.2377 91.0727 72.2481 91.1581 72.2279 91.2381L72.0899 91.7894L72.7449 91.3856C72.812 91.3448 72.8915 91.3341 72.966 91.3557C73.0405 91.3773 73.104 91.4296 73.1426 91.501C73.1812 91.5725 73.1918 91.6574 73.1721 91.7372C73.1524 91.8169 73.1039 91.8851 73.0373 91.9269L72.3823 92.3306L72.8987 92.4787C72.9736 92.5003 73.0374 92.5528 73.0762 92.6246C73.1149 92.6965 73.1253 92.7818 73.1051 92.8619C73.085 92.9419 73.0359 93.0102 72.9686 93.0515C72.9014 93.0929 72.8216 93.104 72.7467 93.0825L71.666 92.7731L69.6771 94L71.6654 95.2269L72.7467 94.9175C72.8216 94.896 72.9014 94.9073 72.9686 94.9487C73.0357 94.9901 73.0848 95.0584 73.1048 95.1384C73.1249 95.2185 73.1144 95.3038 73.0757 95.3756C73.0369 95.4474 72.973 95.4998 72.8981 95.5212L72.3817 95.6694L73.0367 96.0731C73.1033 96.1149 73.1518 96.1831 73.1715 96.2628C73.1913 96.3426 73.1807 96.4275 73.1421 96.499C73.1035 96.5704 73.04 96.6227 72.9654 96.6443C72.8909 96.6659 72.8114 96.6552 72.7443 96.6144L72.0894 96.2106L72.2274 96.7625C72.238 96.8024 72.2411 96.8441 72.2365 96.8853C72.2319 96.9265 72.2196 96.9663 72.2005 97.0024C72.1813 97.0385 72.1557 97.0701 72.125 97.0955C72.0942 97.1208 72.0591 97.1394 72.0216 97.1501C71.9841 97.1608 71.945 97.1634 71.9066 97.1578C71.8681 97.1522 71.8311 97.1384 71.7977 97.1174C71.7642 97.0963 71.7351 97.0683 71.7118 97.0351C71.6886 97.0018 71.6718 96.964 71.6625 96.9238L71.373 95.7681L69.3847 94.5413V96.9956L70.1759 97.8412C70.2308 97.8998 70.2617 97.9794 70.2617 98.0623C70.2618 98.1452 70.231 98.2248 70.1762 98.2834C70.1214 98.3421 70.047 98.3751 69.9694 98.3752C69.8918 98.3752 69.8174 98.3423 69.7625 98.2838L69.3841 97.8794V98.6875C69.3841 98.7704 69.3533 98.8499 69.2985 98.9085C69.2436 98.9671 69.1698 99 69.0923 99Z" fill="#93C0F7"/>
</g>
<g filter="url(#filter5_i_546_349)">
<path d="M55.5015 107C55.4162 107 55.3344 106.967 55.2741 106.908C55.2138 106.85 55.1799 106.77 55.1799 106.688V105.879L54.7643 106.284C54.7039 106.342 54.6221 106.375 54.5367 106.375C54.4514 106.375 54.3695 106.342 54.3092 106.283C54.2489 106.225 54.2151 106.145 54.2151 106.062C54.2152 105.979 54.2492 105.9 54.3095 105.841L55.1799 104.996V102.541L52.9928 103.768L52.6737 104.924C52.6515 105.004 52.5975 105.073 52.5236 105.114C52.4496 105.155 52.3618 105.167 52.2794 105.145C52.197 105.123 52.1268 105.071 52.0842 104.999C52.0416 104.927 52.0301 104.842 52.0523 104.762L52.2048 104.211L51.4843 104.614C51.4105 104.655 51.323 104.666 51.2411 104.644C51.1591 104.623 51.0893 104.57 51.0468 104.499C51.0043 104.428 50.9927 104.343 51.0144 104.263C51.0361 104.183 51.0894 104.115 51.1627 104.073L51.8831 103.669L51.3145 103.521C51.2737 103.511 51.2354 103.492 51.2019 103.467C51.1684 103.442 51.1404 103.411 51.1193 103.375C51.0982 103.34 51.0845 103.301 51.0791 103.26C51.0736 103.219 51.0764 103.178 51.0874 103.138C51.0984 103.098 51.1173 103.061 51.1431 103.029C51.1688 102.996 51.2009 102.969 51.2375 102.948C51.2742 102.928 51.3146 102.915 51.3565 102.909C51.3984 102.904 51.4409 102.907 51.4817 102.918L52.6705 103.227L54.8583 102L52.6711 100.773L51.4811 101.082C51.3992 101.102 51.3126 101.09 51.2399 101.048C51.1673 101.007 51.1143 100.939 51.0926 100.86C51.0708 100.781 51.0819 100.696 51.1236 100.625C51.1652 100.554 51.234 100.501 51.3151 100.479L51.8831 100.331L51.1627 99.9269C51.1258 99.9065 51.0934 99.8793 51.0674 99.8467C51.0415 99.8141 51.0223 99.7769 51.0112 99.7371C51.0001 99.6973 50.9972 99.6558 51.0027 99.6149C51.0082 99.5741 51.0219 99.5347 51.0431 99.499C51.0643 99.4633 51.0926 99.432 51.1263 99.407C51.16 99.3819 51.1984 99.3636 51.2394 99.3531C51.2804 99.3426 51.3232 99.34 51.3652 99.3456C51.4072 99.3512 51.4477 99.3648 51.4843 99.3856L52.2048 99.7894L52.0523 99.2375C52.0406 99.1976 52.0372 99.1559 52.0423 99.1147C52.0473 99.0735 52.0608 99.0337 52.0819 98.9976C52.1029 98.9615 52.1312 98.9299 52.165 98.9045C52.1987 98.8792 52.2374 98.8606 52.2786 98.8499C52.3199 98.8392 52.3629 98.8366 52.4052 98.8422C52.4475 98.8478 52.4882 98.8616 52.525 98.8826C52.5618 98.9037 52.5938 98.9317 52.6194 98.9649C52.6449 98.9982 52.6634 99.036 52.6737 99.0763L52.9921 100.232L55.1799 101.459V99.0044L54.3095 98.1587C54.2796 98.1297 54.2559 98.0953 54.2397 98.0574C54.2235 98.0194 54.2152 97.9788 54.2151 97.9377C54.2151 97.8967 54.2234 97.856 54.2395 97.818C54.2557 97.7801 54.2794 97.7456 54.3092 97.7166C54.3391 97.6875 54.3745 97.6645 54.4136 97.6487C54.4526 97.633 54.4945 97.6249 54.5367 97.6248C54.579 97.6248 54.6208 97.6329 54.6599 97.6485C54.6989 97.6642 54.7344 97.6872 54.7643 97.7163L55.1799 98.1206V97.3125C55.1799 97.2296 55.2138 97.1501 55.2741 97.0915C55.3344 97.0329 55.4162 97 55.5015 97C55.5868 97 55.6686 97.0329 55.729 97.0915C55.7893 97.1501 55.8232 97.2296 55.8232 97.3125V98.1206L56.2394 97.7163C56.2998 97.6577 56.3816 97.6248 56.467 97.6248C56.5523 97.6249 56.6342 97.6579 56.6945 97.7166C56.7548 97.7752 56.7886 97.8548 56.7886 97.9377C56.7885 98.0206 56.7545 98.1002 56.6941 98.1587L55.8232 99.0044V101.459L58.0103 100.232L58.3293 99.0756C58.3515 98.9956 58.4055 98.9273 58.4795 98.886C58.5534 98.8446 58.6413 98.8335 58.7237 98.855C58.8061 98.8765 58.8763 98.929 58.9189 99.0009C58.9615 99.0727 58.9729 99.1581 58.9507 99.2381L58.7989 99.7894L59.5194 99.3856C59.5932 99.3448 59.6807 99.3341 59.7626 99.3557C59.8446 99.3773 59.9144 99.4296 59.9569 99.501C59.9994 99.5725 60.011 99.6574 59.9893 99.7372C59.9676 99.8169 59.9143 99.8851 59.841 99.9269L59.1206 100.331L59.6886 100.479C59.771 100.5 59.8412 100.553 59.8838 100.625C59.9264 100.696 59.9378 100.782 59.9156 100.862C59.8935 100.942 59.8395 101.01 59.7655 101.052C59.6916 101.093 59.6037 101.104 59.5213 101.082L58.3326 100.773L56.1448 102L58.3319 103.227L59.5213 102.918C59.6037 102.896 59.6915 102.907 59.7654 102.949C59.8393 102.99 59.8932 103.058 59.9153 103.138C59.9374 103.218 59.9259 103.304 59.8832 103.376C59.8406 103.447 59.7703 103.5 59.6879 103.521L59.1199 103.669L59.8404 104.073C59.9137 104.115 59.967 104.183 59.9887 104.263C60.0104 104.343 59.9987 104.428 59.9563 104.499C59.9138 104.57 59.844 104.623 59.762 104.644C59.68 104.666 59.5926 104.655 59.5188 104.614L58.7983 104.211L58.9501 104.762C58.9618 104.802 58.9652 104.844 58.9601 104.885C58.9551 104.927 58.9416 104.966 58.9205 105.002C58.8995 105.038 58.8712 105.07 58.8374 105.095C58.8037 105.121 58.765 105.139 58.7238 105.15C58.6825 105.161 58.6395 105.163 58.5972 105.158C58.5549 105.152 58.5142 105.138 58.4774 105.117C58.4406 105.096 58.4086 105.068 58.383 105.035C58.3575 105.002 58.339 104.964 58.3287 104.924L58.0103 103.768L55.8232 102.541V104.996L56.6935 105.841C56.7539 105.9 56.7879 105.979 56.7879 106.062C56.788 106.145 56.7541 106.225 56.6938 106.283C56.6335 106.342 56.5517 106.375 56.4663 106.375C56.381 106.375 56.2991 106.342 56.2387 106.284L55.8225 105.879V106.688C55.8225 106.77 55.7886 106.85 55.7283 106.908C55.668 106.967 55.5868 107 55.5015 107Z" fill="#93C0F7"/>
</g>
<defs>
<filter id="filter0_i_546_349" x="34" y="36.5" width="14.5" height="19" filterUnits="userSpaceOnUse" color-interpolation-filters="sRGB">
<feFlood flood-opacity="0" result="BackgroundImageFix"/>
<feBlend mode="normal" in="SourceGraphic" in2="BackgroundImageFix" result="shape"/>
<feColorMatrix in="SourceAlpha" type="matrix" values="0 0 0 0 0 0 0 0 0 0 0 0 0 0 0 0 0 0 127 0" result="hardAlpha"/>
<feOffset dy="11"/>
<feGaussianBlur stdDeviation="5"/>
<feComposite in2="hardAlpha" operator="arithmetic" k2="-1" k3="1"/>
<feColorMatrix type="matrix" values="0 0 0 0 1 0 0 0 0 1 0 0 0 0 1 0 0 0 1 0"/>
<feBlend mode="normal" in2="shape" result="effect1_innerShadow_546_349"/>
</filter>
<filter id="filter1_i_546_349" x="23.5" y="45.5" width="66" height="49" filterUnits="userSpaceOnUse" color-interpolation-filters="sRGB">
<feFlood flood-opacity="0" result="BackgroundImageFix"/>
<feBlend mode="normal" in="SourceGraphic" in2="BackgroundImageFix" result="shape"/>
<feColorMatrix in="SourceAlpha" type="matrix" values="0 0 0 0 0 0 0 0 0 0 0 0 0 0 0 0 0 0 127 0" result="hardAlpha"/>
<feOffset dy="11"/>
<feGaussianBlur stdDeviation="5"/>
<feComposite in2="hardAlpha" operator="arithmetic" k2="-1" k3="1"/>
<feColorMatrix type="matrix" values="0 0 0 0 1 0 0 0 0 1 0 0 0 0 1 0 0 0 1 0"/>
<feBlend mode="normal" in2="shape" result="effect1_innerShadow_546_349"/>
</filter>
<filter id="filter2_i_546_349" x="53" y="29" width="44" height="36.5" filterUnits="userSpaceOnUse" color-interpolation-filters="sRGB">
<feFlood flood-opacity="0" result="BackgroundImageFix"/>
<feBlend mode="normal" in="SourceGraphic" in2="BackgroundImageFix" result="shape"/>
<feColorMatrix in="SourceAlpha" type="matrix" values="0 0 0 0 0 0 0 0 0 0 0 0 0 0 0 0 0 0 127 0" result="hardAlpha"/>
<feOffset dy="11"/>
<feGaussianBlur stdDeviation="5"/>
<feComposite in2="hardAlpha" operator="arithmetic" k2="-1" k3="1"/>
<feColorMatrix type="matrix" values="0 0 0 0 1 0 0 0 0 1 0 0 0 0 1 0 0 0 1 0"/>
<feBlend mode="normal" in2="shape" result="effect1_innerShadow_546_349"/>
</filter>
<filter id="filter3_i_546_349" x="38" y="89" width="8.57141" height="13" filterUnits="userSpaceOnUse" color-interpolation-filters="sRGB">
<feFlood flood-opacity="0" result="BackgroundImageFix"/>
<feBlend mode="normal" in="SourceGraphic" in2="BackgroundImageFix" result="shape"/>
<feColorMatrix in="SourceAlpha" type="matrix" values="0 0 0 0 0 0 0 0 0 0 0 0 0 0 0 0 0 0 127 0" result="hardAlpha"/>
<feOffset dy="9"/>
<feGaussianBlur stdDeviation="1.5"/>
<feComposite in2="hardAlpha" operator="arithmetic" k2="-1" k3="1"/>
<feColorMatrix type="matrix" values="0 0 0 0 1 0 0 0 0 1 0 0 0 0 1 0 0 0 0.21 0"/>
<feBlend mode="normal" in2="shape" result="effect1_innerShadow_546_349"/>
</filter>
<filter id="filter4_i_546_349" x="65" y="89" width="8.18176" height="13" filterUnits="userSpaceOnUse" color-interpolation-filters="sRGB">
<feFlood flood-opacity="0" result="BackgroundImageFix"/>
<feBlend mode="normal" in="SourceGraphic" in2="BackgroundImageFix" result="shape"/>
<feColorMatrix in="SourceAlpha" type="matrix" values="0 0 0 0 0 0 0 0 0 0 0 0 0 0 0 0 0 0 127 0" result="hardAlpha"/>
<feOffset dy="9"/>
<feGaussianBlur stdDeviation="1.5"/>
<feComposite in2="hardAlpha" operator="arithmetic" k2="-1" k3="1"/>
<feColorMatrix type="matrix" values="0 0 0 0 1 0 0 0 0 1 0 0 0 0 1 0 0 0 0.21 0"/>
<feBlend mode="normal" in2="shape" result="effect1_innerShadow_546_349"/>
</filter>
<filter id="filter5_i_546_349" x="51" y="97" width="9" height="13" filterUnits="userSpaceOnUse" color-interpolation-filters="sRGB">
<feFlood flood-opacity="0" result="BackgroundImageFix"/>
<feBlend mode="normal" in="SourceGraphic" in2="BackgroundImageFix" result="shape"/>
<feColorMatrix in="SourceAlpha" type="matrix" values="0 0 0 0 0 0 0 0 0 0 0 0 0 0 0 0 0 0 127 0" result="hardAlpha"/>
<feOffset dy="9"/>
<feGaussianBlur stdDeviation="1.5"/>
<feComposite in2="hardAlpha" operator="arithmetic" k2="-1" k3="1"/>
<feColorMatrix type="matrix" values="0 0 0 0 1 0 0 0 0 1 0 0 0 0 1 0 0 0 0.21 0"/>
<feBlend mode="normal" in2="shape" result="effect1_innerShadow_546_349"/>
</filter>
<linearGradient id="paint0_linear_546_349" x1="34.9223" y1="44.6964" x2="50.0118" y2="33.9041" gradientUnits="userSpaceOnUse">
<stop stop-color="white" stop-opacity="0.65"/>
<stop offset="1" stop-color="white" stop-opacity="0.58"/>
</linearGradient>
<linearGradient id="paint1_linear_546_349" x1="27.6979" y1="81.0179" x2="94.0604" y2="31.1619" gradientUnits="userSpaceOnUse">
<stop stop-color="white" stop-opacity="0.65"/>
<stop offset="1" stop-color="white" stop-opacity="0.58"/>
</linearGradient>
<linearGradient id="paint2_linear_546_349" x1="94.2014" y1="53.1339" x2="49.3549" y2="20.0779" gradientUnits="userSpaceOnUse">
<stop stop-color="white" stop-opacity="0.65"/>
<stop offset="1" stop-color="white" stop-opacity="0.58"/>
</linearGradient>
</defs>
</svg>
