<svg width="24" height="24" viewBox="0 0 24 24" fill="none" xmlns="http://www.w3.org/2000/svg">
<path d="M11.4375 3.75V3C11.4375 2.85082 11.4968 2.70774 11.6023 2.60225C11.7077 2.49676 11.8508 2.4375 12 2.4375C12.1492 2.4375 12.2923 2.49676 12.3977 2.60225C12.5032 2.70774 12.5625 2.85082 12.5625 3V3.75C12.5625 3.89918 12.5032 4.04226 12.3977 4.14775C12.2923 4.25324 12.1492 4.3125 12 4.3125C11.8508 4.3125 11.7077 4.25324 11.6023 4.14775C11.4968 4.04226 11.4375 3.89918 11.4375 3.75ZM17.8125 12C17.8125 13.1496 17.4716 14.2734 16.8329 15.2293C16.1942 16.1851 15.2864 16.9301 14.2243 17.3701C13.1623 17.81 11.9936 17.9251 10.866 17.7008C9.73852 17.4765 8.70283 16.923 7.88994 16.1101C7.07705 15.2972 6.52346 14.2615 6.29919 13.134C6.07491 12.0064 6.19002 10.8377 6.62995 9.77565C7.06988 8.71356 7.81489 7.80577 8.77075 7.16708C9.72661 6.5284 10.8504 6.1875 12 6.1875C13.541 6.18924 15.0185 6.80218 16.1081 7.89186C17.1978 8.98154 17.8108 10.459 17.8125 12ZM16.6875 12C16.6875 11.0729 16.4126 10.1666 15.8975 9.39576C15.3824 8.62491 14.6504 8.0241 13.7938 7.66931C12.9373 7.31453 11.9948 7.2217 11.0855 7.40257C10.1762 7.58344 9.341 8.02988 8.68544 8.68544C8.02988 9.341 7.58344 10.1762 7.40257 11.0855C7.2217 11.9948 7.31453 12.9373 7.66931 13.7938C8.0241 14.6504 8.62491 15.3824 9.39576 15.8975C10.1666 16.4126 11.0729 16.6875 12 16.6875C13.2427 16.686 14.4342 16.1917 15.3129 15.3129C16.1917 14.4342 16.686 13.2427 16.6875 12ZM5.6025 6.3975C5.654 6.45276 5.7161 6.49709 5.7851 6.52784C5.8541 6.55858 5.92858 6.57511 6.00411 6.57644C6.07964 6.57778 6.15466 6.56388 6.2247 6.53559C6.29474 6.5073 6.35836 6.46519 6.41178 6.41178C6.46519 6.35836 6.5073 6.29474 6.53559 6.2247C6.56388 6.15466 6.57778 6.07964 6.57644 6.00411C6.57511 5.92858 6.55858 5.8541 6.52784 5.7851C6.49709 5.7161 6.45276 5.654 6.3975 5.6025L5.6475 4.8525C5.54087 4.75314 5.39983 4.69905 5.25411 4.70162C5.10838 4.70419 4.96934 4.76322 4.86628 4.86628C4.76322 4.96934 4.70419 5.10838 4.70162 5.25411C4.69905 5.39983 4.75314 5.54087 4.8525 5.6475L5.6025 6.3975ZM5.6025 17.6025L4.8525 18.3525C4.79723 18.404 4.75291 18.4661 4.72216 18.5351C4.69142 18.6041 4.67489 18.6786 4.67356 18.7541C4.67222 18.8296 4.68612 18.9047 4.71441 18.9747C4.7427 19.0447 4.78481 19.1084 4.83822 19.1618C4.89164 19.2152 4.95526 19.2573 5.0253 19.2856C5.09534 19.3139 5.17036 19.3278 5.24589 19.3264C5.32142 19.3251 5.3959 19.3086 5.4649 19.2778C5.5339 19.2471 5.596 19.2028 5.6475 19.1475L6.3975 18.3975C6.45276 18.346 6.49709 18.2839 6.52784 18.2149C6.55858 18.1459 6.57511 18.0714 6.57644 17.9959C6.57778 17.9204 6.56388 17.8453 6.53559 17.7753C6.5073 17.7053 6.46519 17.6416 6.41178 17.5882C6.35836 17.5348 6.29474 17.4927 6.2247 17.4644C6.15466 17.4361 6.07964 17.4222 6.00411 17.4236C5.92858 17.4249 5.8541 17.4414 5.7851 17.4722C5.7161 17.5029 5.654 17.5472 5.6025 17.6025ZM18.3525 4.8525L17.6025 5.6025C17.5472 5.654 17.5029 5.7161 17.4722 5.7851C17.4414 5.8541 17.4249 5.92858 17.4236 6.00411C17.4222 6.07964 17.4361 6.15466 17.4644 6.2247C17.4927 6.29474 17.5348 6.35836 17.5882 6.41178C17.6416 6.46519 17.7053 6.5073 17.7753 6.53559C17.8453 6.56388 17.9204 6.57778 17.9959 6.57644C18.0714 6.57511 18.1459 6.55858 18.2149 6.52784C18.2839 6.49709 18.346 6.45276 18.3975 6.3975L19.1475 5.6475C19.2469 5.54087 19.301 5.39983 19.2984 5.25411C19.2958 5.10838 19.2368 4.96934 19.1337 4.86628C19.0307 4.76322 18.8916 4.70419 18.7459 4.70162C18.6002 4.69905 18.4591 4.75314 18.3525 4.8525ZM18.3975 17.6025C18.2909 17.5031 18.1498 17.449 18.0041 17.4516C17.8584 17.4542 17.7193 17.5132 17.6163 17.6163C17.5132 17.7193 17.4542 17.8584 17.4516 18.0041C17.449 18.1498 17.5031 18.2909 17.6025 18.3975L18.3525 19.1475C18.4591 19.2469 18.6002 19.301 18.7459 19.2984C18.8916 19.2958 19.0307 19.2368 19.1337 19.1337C19.2368 19.0307 19.2958 18.8916 19.2984 18.7459C19.301 18.6002 19.2469 18.4591 19.1475 18.3525L18.3975 17.6025ZM3.75 11.4375H3C2.85082 11.4375 2.70774 11.4968 2.60225 11.6023C2.49676 11.7077 2.4375 11.8508 2.4375 12C2.4375 12.1492 2.49676 12.2923 2.60225 12.3977C2.70774 12.5032 2.85082 12.5625 3 12.5625H3.75C3.89918 12.5625 4.04226 12.5032 4.14775 12.3977C4.25324 12.2923 4.3125 12.1492 4.3125 12C4.3125 11.8508 4.25324 11.7077 4.14775 11.6023C4.04226 11.4968 3.89918 11.4375 3.75 11.4375ZM12 19.6875C11.8508 19.6875 11.7077 19.7468 11.6023 19.8523C11.4968 19.9577 11.4375 20.1008 11.4375 20.25V21C11.4375 21.1492 11.4968 21.2923 11.6023 21.3977C11.7077 21.5032 11.8508 21.5625 12 21.5625C12.1492 21.5625 12.2923 21.5032 12.3977 21.3977C12.5032 21.2923 12.5625 21.1492 12.5625 21V20.25C12.5625 20.1008 12.5032 19.9577 12.3977 19.8523C12.2923 19.7468 12.1492 19.6875 12 19.6875ZM21 11.4375H20.25C20.1008 11.4375 19.9577 11.4968 19.8523 11.6023C19.7468 11.7077 19.6875 11.8508 19.6875 12C19.6875 12.1492 19.7468 12.2923 19.8523 12.3977C19.9577 12.5032 20.1008 12.5625 20.25 12.5625H21C21.1492 12.5625 21.2923 12.5032 21.3977 12.3977C21.5032 12.2923 21.5625 12.1492 21.5625 12C21.5625 11.8508 21.5032 11.7077 21.3977 11.6023C21.2923 11.4968 21.1492 11.4375 21 11.4375Z" fill="#3B3B54"/>
</svg>
