<svg width="32" height="32" viewBox="0 0 32 32" fill="none" xmlns="http://www.w3.org/2000/svg">
<path d="M15.25 5V4C15.25 3.80109 15.329 3.61032 15.4697 3.46967C15.6103 3.32902 15.8011 3.25 16 3.25C16.1989 3.25 16.3897 3.32902 16.5303 3.46967C16.671 3.61032 16.75 3.80109 16.75 4V5C16.75 5.19891 16.671 5.38968 16.5303 5.53033C16.3897 5.67098 16.1989 5.75 16 5.75C15.8011 5.75 15.6103 5.67098 15.4697 5.53033C15.329 5.38968 15.25 5.19891 15.25 5ZM23.75 16C23.75 17.5328 23.2955 19.0312 22.4439 20.3057C21.5923 21.5802 20.3819 22.5735 18.9658 23.1601C17.5497 23.7466 15.9914 23.9001 14.4881 23.6011C12.9847 23.302 11.6038 22.5639 10.5199 21.4801C9.43607 20.3962 8.69795 19.0153 8.39891 17.5119C8.09988 16.0086 8.25335 14.4503 8.83993 13.0342C9.42651 11.6181 10.4199 10.4077 11.6943 9.55611C12.9688 8.70453 14.4672 8.25 16 8.25C18.0547 8.25232 20.0246 9.06957 21.4775 10.5225C22.9304 11.9754 23.7477 13.9453 23.75 16ZM22.25 16C22.25 14.7639 21.8834 13.5555 21.1967 12.5277C20.5099 11.4999 19.5338 10.6988 18.3918 10.2258C17.2497 9.75271 15.9931 9.62893 14.7807 9.87009C13.5683 10.1112 12.4547 10.7065 11.5806 11.5806C10.7065 12.4547 10.1112 13.5683 9.87009 14.7807C9.62893 15.9931 9.75271 17.2497 10.2258 18.3918C10.6988 19.5338 11.4999 20.5099 12.5277 21.1967C13.5555 21.8834 14.7639 22.25 16 22.25C17.657 22.248 19.2456 21.5889 20.4172 20.4172C21.5889 19.2456 22.248 17.657 22.25 16ZM7.47 8.53C7.53866 8.60369 7.62146 8.66279 7.71346 8.70378C7.80546 8.74477 7.90478 8.76682 8.00548 8.76859C8.10618 8.77037 8.20621 8.75184 8.2996 8.71412C8.39299 8.6764 8.47782 8.62026 8.54904 8.54904C8.62026 8.47782 8.6764 8.39299 8.71412 8.2996C8.75184 8.20621 8.77037 8.10618 8.76859 8.00548C8.76682 7.90478 8.74477 7.80546 8.70378 7.71346C8.66279 7.62146 8.60369 7.53866 8.53 7.47L7.53 6.47C7.38783 6.33752 7.19978 6.2654 7.00548 6.26883C6.81118 6.27225 6.62579 6.35097 6.48838 6.48838C6.35097 6.62579 6.27225 6.81118 6.26883 7.00548C6.2654 7.19978 6.33752 7.38783 6.47 7.53L7.47 8.53ZM7.47 23.47L6.47 24.47C6.39631 24.5387 6.33721 24.6215 6.29622 24.7135C6.25523 24.8055 6.23319 24.9048 6.23141 25.0055C6.22963 25.1062 6.24816 25.2062 6.28588 25.2996C6.3236 25.393 6.37974 25.4778 6.45096 25.549C6.52218 25.6203 6.60701 25.6764 6.7004 25.7141C6.79379 25.7518 6.89382 25.7704 6.99452 25.7686C7.09523 25.7668 7.19454 25.7448 7.28654 25.7038C7.37854 25.6628 7.46134 25.6037 7.53 25.53L8.53 24.53C8.60369 24.4613 8.66279 24.3785 8.70378 24.2865C8.74477 24.1945 8.76682 24.0952 8.76859 23.9945C8.77037 23.8938 8.75184 23.7938 8.71412 23.7004C8.6764 23.607 8.62026 23.5222 8.54904 23.451C8.47782 23.3797 8.39299 23.3236 8.2996 23.2859C8.20621 23.2482 8.10618 23.2296 8.00548 23.2314C7.90478 23.2332 7.80546 23.2552 7.71346 23.2962C7.62146 23.3372 7.53866 23.3963 7.47 23.47ZM24.47 6.47L23.47 7.47C23.3963 7.53866 23.3372 7.62146 23.2962 7.71346C23.2552 7.80546 23.2332 7.90478 23.2314 8.00548C23.2296 8.10618 23.2482 8.20621 23.2859 8.2996C23.3236 8.39299 23.3797 8.47782 23.451 8.54904C23.5222 8.62026 23.607 8.6764 23.7004 8.71412C23.7938 8.75184 23.8938 8.77037 23.9945 8.76859C24.0952 8.76682 24.1945 8.74477 24.2865 8.70378C24.3785 8.66279 24.4613 8.60369 24.53 8.53L25.53 7.53C25.6625 7.38783 25.7346 7.19978 25.7312 7.00548C25.7277 6.81118 25.649 6.62579 25.5116 6.48838C25.3742 6.35097 25.1888 6.27225 24.9945 6.26883C24.8002 6.2654 24.6122 6.33752 24.47 6.47ZM24.53 23.47C24.3878 23.3375 24.1998 23.2654 24.0055 23.2688C23.8112 23.2723 23.6258 23.351 23.4884 23.4884C23.351 23.6258 23.2723 23.8112 23.2688 24.0055C23.2654 24.1998 23.3375 24.3878 23.47 24.53L24.47 25.53C24.6122 25.6625 24.8002 25.7346 24.9945 25.7312C25.1888 25.7277 25.3742 25.649 25.5116 25.5116C25.649 25.3742 25.7277 25.1888 25.7312 24.9945C25.7346 24.8002 25.6625 24.6122 25.53 24.47L24.53 23.47ZM5 15.25H4C3.80109 15.25 3.61032 15.329 3.46967 15.4697C3.32902 15.6103 3.25 15.8011 3.25 16C3.25 16.1989 3.32902 16.3897 3.46967 16.5303C3.61032 16.671 3.80109 16.75 4 16.75H5C5.19891 16.75 5.38968 16.671 5.53033 16.5303C5.67098 16.3897 5.75 16.1989 5.75 16C5.75 15.8011 5.67098 15.6103 5.53033 15.4697C5.38968 15.329 5.19891 15.25 5 15.25ZM16 26.25C15.8011 26.25 15.6103 26.329 15.4697 26.4697C15.329 26.6103 15.25 26.8011 15.25 27V28C15.25 28.1989 15.329 28.3897 15.4697 28.5303C15.6103 28.671 15.8011 28.75 16 28.75C16.1989 28.75 16.3897 28.671 16.5303 28.5303C16.671 28.3897 16.75 28.1989 16.75 28V27C16.75 26.8011 16.671 26.6103 16.5303 26.4697C16.3897 26.329 16.1989 26.25 16 26.25ZM28 15.25H27C26.8011 15.25 26.6103 15.329 26.4697 15.4697C26.329 15.6103 26.25 15.8011 26.25 16C26.25 16.1989 26.329 16.3897 26.4697 16.5303C26.6103 16.671 26.8011 16.75 27 16.75H28C28.1989 16.75 28.3897 16.671 28.5303 16.5303C28.671 16.3897 28.75 16.1989 28.75 16C28.75 15.8011 28.671 15.6103 28.5303 15.4697C28.3897 15.329 28.1989 15.25 28 15.25Z" fill="#3B3B55"/>
</svg>
