<svg width="24" height="24" viewBox="0 0 24 24" fill="none" xmlns="http://www.w3.org/2000/svg">
<path d="M12.5625 14.4938V8.25C12.5625 8.10082 12.5032 7.95774 12.3977 7.85225C12.2923 7.74676 12.1492 7.6875 12 7.6875C11.8508 7.6875 11.7077 7.74676 11.6023 7.85225C11.4968 7.95774 11.4375 8.10082 11.4375 8.25V14.4938C10.7546 14.6331 10.1478 15.0211 9.7347 15.5825C9.32162 16.1439 9.13169 16.8387 9.20174 17.5321C9.2718 18.2256 9.59684 18.8683 10.1139 19.3357C10.6309 19.8031 11.303 20.0619 12 20.0619C12.697 20.0619 13.3691 19.8031 13.8861 19.3357C14.4032 18.8683 14.7282 18.2256 14.7983 17.5321C14.8683 16.8387 14.6784 16.1439 14.2653 15.5825C13.8522 15.0211 13.2454 14.6331 12.5625 14.4938ZM12 18.9375C11.6662 18.9375 11.34 18.8385 11.0625 18.6531C10.785 18.4677 10.5687 18.2041 10.441 17.8958C10.3132 17.5874 10.2798 17.2481 10.3449 16.9208C10.41 16.5934 10.5708 16.2928 10.8068 16.0568C11.0428 15.8208 11.3434 15.66 11.6708 15.5949C11.9981 15.5298 12.3374 15.5632 12.6458 15.691C12.9541 15.8187 13.2177 16.035 13.4031 16.3125C13.5885 16.59 13.6875 16.9162 13.6875 17.25C13.6875 17.6976 13.5097 18.1268 13.1932 18.4432C12.8768 18.7597 12.4476 18.9375 12 18.9375ZM15.5625 12.6562V4.5C15.5625 3.55517 15.1872 2.64903 14.5191 1.98093C13.851 1.31283 12.9448 0.9375 12 0.9375C11.0552 0.9375 10.149 1.31283 9.48093 1.98093C8.81283 2.64903 8.4375 3.55517 8.4375 4.5V12.6562C7.47992 13.399 6.77845 14.4225 6.43121 15.5836C6.08397 16.7447 6.10833 17.9853 6.50087 19.1318C6.89342 20.2784 7.63453 21.2735 8.62053 21.9781C9.60653 22.6827 10.7881 23.0615 12 23.0615C13.2119 23.0615 14.3935 22.6827 15.3795 21.9781C16.3655 21.2735 17.1066 20.2784 17.4991 19.1318C17.8917 17.9853 17.916 16.7447 17.5688 15.5836C17.2216 14.4225 16.5201 13.399 15.5625 12.6562ZM12 21.9375C11.0029 21.9365 10.0321 21.6177 9.22862 21.0272C8.42516 20.4367 7.83092 19.6054 7.53225 18.6541C7.23357 17.7028 7.24604 16.681 7.56782 15.7373C7.8896 14.7935 8.50394 13.977 9.32156 13.4062C9.39695 13.3537 9.45833 13.2836 9.50033 13.2018C9.54233 13.1201 9.56368 13.0294 9.5625 12.9375V4.5C9.5625 3.85353 9.81931 3.23355 10.2764 2.77643C10.7335 2.31931 11.3535 2.0625 12 2.0625C12.6465 2.0625 13.2665 2.31931 13.7236 2.77643C14.1807 3.23355 14.4375 3.85353 14.4375 4.5V12.9375C14.4375 13.0281 14.4595 13.1174 14.5014 13.1977C14.5434 13.278 14.6041 13.347 14.6784 13.3988C15.4993 13.9683 16.1168 14.7853 16.4406 15.7305C16.7645 16.6757 16.7779 17.6996 16.4789 18.653C16.1798 19.6063 15.584 20.4392 14.7783 21.03C13.9726 21.6209 12.9991 21.9388 12 21.9375Z" fill="#3B3B54"/>
</svg>
