<svg width="32" height="32" viewBox="0 0 32 32" fill="none" xmlns="http://www.w3.org/2000/svg">
<path d="M16.75 19.325V11C16.75 10.8011 16.671 10.6103 16.5303 10.4697C16.3897 10.329 16.1989 10.25 16 10.25C15.8011 10.25 15.6103 10.329 15.4697 10.4697C15.329 10.6103 15.25 10.8011 15.25 11V19.325C14.3395 19.5109 13.5304 20.0282 12.9796 20.7767C12.4288 21.5252 12.1756 22.4515 12.269 23.3761C12.3624 24.3007 12.7958 25.1577 13.4851 25.781C14.1745 26.4042 15.0707 26.7492 16 26.7492C16.9293 26.7492 17.8255 26.4042 18.5149 25.781C19.2042 25.1577 19.6376 24.3007 19.731 23.3761C19.8244 22.4515 19.5712 21.5252 19.0204 20.7767C18.4696 20.0282 17.6605 19.5109 16.75 19.325ZM16 25.25C15.555 25.25 15.12 25.118 14.75 24.8708C14.38 24.6236 14.0916 24.2722 13.9213 23.861C13.751 23.4499 13.7064 22.9975 13.7932 22.561C13.88 22.1246 14.0943 21.7237 14.409 21.409C14.7237 21.0943 15.1246 20.8801 15.561 20.7932C15.9975 20.7064 16.4499 20.751 16.861 20.9213C17.2722 21.0916 17.6236 21.38 17.8708 21.75C18.118 22.12 18.25 22.555 18.25 23C18.25 23.5967 18.0129 24.169 17.591 24.591C17.169 25.0129 16.5967 25.25 16 25.25ZM20.75 16.875V6C20.75 4.74022 20.2496 3.53204 19.3588 2.64124C18.468 1.75044 17.2598 1.25 16 1.25C14.7402 1.25 13.532 1.75044 12.6412 2.64124C11.7504 3.53204 11.25 4.74022 11.25 6V16.875C9.97322 17.8654 9.03793 19.23 8.57494 20.7781C8.11196 22.3262 8.14443 23.9803 8.66783 25.5091C9.19123 27.0378 10.1794 28.3647 11.494 29.3042C12.8087 30.2437 14.3841 30.7487 16 30.7487C17.6159 30.7487 19.1913 30.2437 20.506 29.3042C21.8206 28.3647 22.8088 27.0378 23.3322 25.5091C23.8556 23.9803 23.888 22.3262 23.4251 20.7781C22.9621 19.23 22.0268 17.8654 20.75 16.875ZM16 29.25C14.6705 29.2487 13.3761 28.8235 12.3048 28.0362C11.2335 27.2489 10.4412 26.1406 10.043 24.8721C9.64477 23.6037 9.66138 22.2413 10.0904 20.983C10.5195 19.7247 11.3386 18.6359 12.4288 17.875C12.5293 17.805 12.6111 17.7114 12.6671 17.6025C12.7231 17.4935 12.7516 17.3725 12.75 17.25V6C12.75 5.13805 13.0924 4.3114 13.7019 3.7019C14.3114 3.09241 15.138 2.75 16 2.75C16.862 2.75 17.6886 3.09241 18.2981 3.7019C18.9076 4.3114 19.25 5.13805 19.25 6V17.25C19.2501 17.3708 19.2793 17.4898 19.3352 17.5969C19.3912 17.704 19.4721 17.7959 19.5713 17.865C20.6658 18.6244 21.489 19.7137 21.9209 20.974C22.3527 22.2342 22.3706 23.5995 21.9718 24.8706C21.5731 26.1418 20.7787 27.2522 19.7044 28.04C18.6301 28.8278 17.3322 29.2518 16 29.25Z" fill="#3B3B55"/>
</svg>
