<svg width="32" height="32" viewBox="0 0 32 32" fill="none" xmlns="http://www.w3.org/2000/svg">
<path d="M22.75 23C22.75 23.9946 22.3549 24.9484 21.6517 25.6517C20.9484 26.3549 19.9946 26.75 19 26.75C17.3875 26.75 15.83 25.7025 15.2963 24.26C15.2273 24.0734 15.2353 23.867 15.3185 23.6862C15.4017 23.5055 15.5534 23.3652 15.74 23.2962C15.9266 23.2273 16.133 23.2353 16.3138 23.3185C16.4945 23.4017 16.6348 23.5534 16.7038 23.74C17.0163 24.5863 18.025 25.25 19 25.25C19.5967 25.25 20.169 25.0129 20.591 24.591C21.0129 24.169 21.25 23.5967 21.25 23C21.25 22.4033 21.0129 21.831 20.591 21.409C20.169 20.9871 19.5967 20.75 19 20.75H5C4.80109 20.75 4.61032 20.671 4.46967 20.5303C4.32902 20.3897 4.25 20.1989 4.25 20C4.25 19.8011 4.32902 19.6103 4.46967 19.4697C4.61032 19.329 4.80109 19.25 5 19.25H19C19.9946 19.25 20.9484 19.6451 21.6517 20.3483C22.3549 21.0516 22.75 22.0054 22.75 23ZM18.75 9C18.75 8.00544 18.3549 7.05161 17.6517 6.34835C16.9484 5.64509 15.9946 5.25 15 5.25C13.3875 5.25 11.83 6.2975 11.2963 7.74C11.2273 7.92665 11.2353 8.13304 11.3185 8.31378C11.4017 8.49452 11.5534 8.63479 11.74 8.70375C11.9266 8.77271 12.133 8.76469 12.3138 8.68147C12.4945 8.59825 12.6348 8.44665 12.7037 8.26C13.0162 7.41375 14.025 6.75 15 6.75C15.5967 6.75 16.169 6.98705 16.591 7.40901C17.0129 7.83097 17.25 8.40326 17.25 9C17.25 9.59674 17.0129 10.169 16.591 10.591C16.169 11.0129 15.5967 11.25 15 11.25H3C2.80109 11.25 2.61032 11.329 2.46967 11.4697C2.32902 11.6103 2.25 11.8011 2.25 12C2.25 12.1989 2.32902 12.3897 2.46967 12.5303C2.61032 12.671 2.80109 12.75 3 12.75H15C15.9946 12.75 16.9484 12.3549 17.6517 11.6517C18.3549 10.9484 18.75 9.99456 18.75 9ZM26 9.25C24.3875 9.25 22.83 10.2975 22.2962 11.74C22.2621 11.8324 22.2465 11.9307 22.2503 12.0291C22.2541 12.1276 22.2773 12.2243 22.3185 12.3138C22.3597 12.4033 22.4182 12.4838 22.4905 12.5507C22.5628 12.6176 22.6476 12.6696 22.74 12.7037C22.8324 12.7379 22.9307 12.7535 23.0291 12.7497C23.1276 12.7459 23.2243 12.7227 23.3138 12.6815C23.4033 12.6403 23.4838 12.5818 23.5507 12.5095C23.6176 12.4372 23.6696 12.3524 23.7038 12.26C24.0163 11.4138 25.025 10.75 26 10.75C26.5967 10.75 27.169 10.9871 27.591 11.409C28.0129 11.831 28.25 12.4033 28.25 13C28.25 13.5967 28.0129 14.169 27.591 14.591C27.169 15.0129 26.5967 15.25 26 15.25H4C3.80109 15.25 3.61032 15.329 3.46967 15.4697C3.32902 15.6103 3.25 15.8011 3.25 16C3.25 16.1989 3.32902 16.3897 3.46967 16.5303C3.61032 16.671 3.80109 16.75 4 16.75H26C26.9946 16.75 27.9484 16.3549 28.6517 15.6517C29.3549 14.9484 29.75 13.9946 29.75 13C29.75 12.0054 29.3549 11.0516 28.6517 10.3483C27.9484 9.64509 26.9946 9.25 26 9.25Z" fill="#3B3B55"/>
</svg>
