<svg width="24" height="24" viewBox="0 0 24 24" fill="none" xmlns="http://www.w3.org/2000/svg">
<path d="M17.0625 17.25C17.0625 17.9959 16.7662 18.7113 16.2387 19.2387C15.7113 19.7662 14.9959 20.0625 14.25 20.0625C13.0406 20.0625 11.8725 19.2769 11.4722 18.195C11.4205 18.055 11.4265 17.9002 11.4889 17.7647C11.5513 17.6291 11.665 17.5239 11.805 17.4722C11.945 17.4205 12.0998 17.4265 12.2353 17.4889C12.3709 17.5513 12.4761 17.665 12.5278 17.805C12.7622 18.4397 13.5188 18.9375 14.25 18.9375C14.6976 18.9375 15.1268 18.7597 15.4432 18.4432C15.7597 18.1268 15.9375 17.6976 15.9375 17.25C15.9375 16.8024 15.7597 16.3732 15.4432 16.0568C15.1268 15.7403 14.6976 15.5625 14.25 15.5625H3.75C3.60082 15.5625 3.45774 15.5032 3.35225 15.3977C3.24676 15.2923 3.1875 15.1492 3.1875 15C3.1875 14.8508 3.24676 14.7077 3.35225 14.6023C3.45774 14.4968 3.60082 14.4375 3.75 14.4375H14.25C14.9959 14.4375 15.7113 14.7338 16.2387 15.2613C16.7662 15.7887 17.0625 16.5041 17.0625 17.25ZM14.0625 6.75C14.0625 6.00408 13.7662 5.28871 13.2387 4.76126C12.7113 4.23382 11.9959 3.9375 11.25 3.9375C10.0406 3.9375 8.8725 4.72312 8.47219 5.805C8.42047 5.94498 8.42648 6.09978 8.48889 6.23533C8.55131 6.37089 8.66502 6.47609 8.805 6.52781C8.94498 6.57953 9.09978 6.57352 9.23533 6.51111C9.37089 6.44869 9.4761 6.33498 9.52781 6.195C9.76219 5.56031 10.5188 5.0625 11.25 5.0625C11.6976 5.0625 12.1268 5.24029 12.4432 5.55676C12.7597 5.87323 12.9375 6.30245 12.9375 6.75C12.9375 7.19755 12.7597 7.62678 12.4432 7.94324C12.1268 8.25971 11.6976 8.4375 11.25 8.4375H2.25C2.10082 8.4375 1.95774 8.49676 1.85225 8.60225C1.74676 8.70774 1.6875 8.85082 1.6875 9C1.6875 9.14918 1.74676 9.29226 1.85225 9.39775C1.95774 9.50324 2.10082 9.5625 2.25 9.5625H11.25C11.9959 9.5625 12.7113 9.26618 13.2387 8.73874C13.7662 8.21129 14.0625 7.49592 14.0625 6.75ZM19.5 6.9375C18.2906 6.9375 17.1225 7.72312 16.7222 8.805C16.6966 8.87431 16.6849 8.94799 16.6877 9.02183C16.6906 9.09567 16.708 9.16821 16.7389 9.23533C16.7698 9.30245 16.8136 9.36283 16.8679 9.41301C16.9221 9.4632 16.9857 9.5022 17.055 9.52781C17.1243 9.55342 17.198 9.56512 17.2718 9.56226C17.3457 9.55939 17.4182 9.54201 17.4853 9.51111C17.5525 9.4802 17.6128 9.43638 17.663 9.38214C17.7132 9.3279 17.7522 9.26431 17.7778 9.195C18.0122 8.56031 18.7687 8.0625 19.5 8.0625C19.9476 8.0625 20.3768 8.24029 20.6932 8.55676C21.0097 8.87323 21.1875 9.30245 21.1875 9.75C21.1875 10.1976 21.0097 10.6268 20.6932 10.9432C20.3768 11.2597 19.9476 11.4375 19.5 11.4375H3C2.85082 11.4375 2.70774 11.4968 2.60225 11.6023C2.49676 11.7077 2.4375 11.8508 2.4375 12C2.4375 12.1492 2.49676 12.2923 2.60225 12.3977C2.70774 12.5032 2.85082 12.5625 3 12.5625H19.5C20.2459 12.5625 20.9613 12.2662 21.4887 11.7387C22.0162 11.2113 22.3125 10.4959 22.3125 9.75C22.3125 9.00408 22.0162 8.28871 21.4887 7.76126C20.9613 7.23382 20.2459 6.9375 19.5 6.9375Z" fill="#3B3B54"/>
</svg>
